<?xml version="1.0" standalone="no"?>
<!DOCTYPE svg PUBLIC "-//W3C//DTD SVG 1.1//EN" "http://www.w3.org/Graphics/SVG/1.1/DTD/svg11.dtd" >
<svg xmlns="http://www.w3.org/2000/svg">
<metadata></metadata>
<defs>
<font id="rachelregular" horiz-adv-x="1146" >
<font-face units-per-em="2048" ascent="1536" descent="-512" />
<missing-glyph horiz-adv-x="409" />
<glyph horiz-adv-x="0" />
<glyph unicode="&#xd;" horiz-adv-x="569" />
<glyph horiz-adv-x="0" />
<glyph horiz-adv-x="0" />
<glyph unicode=" "  horiz-adv-x="409" />
<glyph unicode="&#x09;" horiz-adv-x="409" />
<glyph unicode="&#xa0;" horiz-adv-x="409" />
<glyph unicode="!" horiz-adv-x="665" d="M82 1204q4 70 31 125q23 47 74 87t147 40q51 0 97 -19.5t80 -54t53.5 -81t19.5 -97.5l-240 -819h-33q-63 209 -114 381q-23 74 -43.5 145.5t-36 132t-25.5 103.5t-10 57zM156 147q0 35 13 66t36.5 54.5t54.5 36.5t68 13q72 0 121 -49t49 -121t-49.5 -122t-120.5 -50 q-37 0 -68 13.5t-54.5 37t-36.5 55.5t-13 66z" />
<glyph unicode="&#x22;" horiz-adv-x="550" d="M82 1413q0 35 25.5 60.5t60.5 25.5q31 0 48 -13t25.5 -28.5t9.5 -29.5l1 -15q0 -8 -8 -39t-20.5 -74t-28 -91t-27.5 -87zM297 1413q0 35 24.5 60.5t61.5 25.5q31 0 48.5 -13t25.5 -28.5t10 -29.5l2 -15q0 -8 -8 -39t-21.5 -74t-29 -91t-27.5 -87z" />
<glyph unicode="#" horiz-adv-x="974" d="M12 494l6 16h351l49 182h-352l4 10h350l88 326h16l-88 -326h172l92 326h17l-90 -326h336v-10h-340l-52 -180h332v-18h-338l-88 -326h-18l94 326h-178l-92 -326h-17l92 326h-346zM383 510h170l53 182h-176z" />
<glyph unicode="$" horiz-adv-x="1189" d="M119 -25v502h26q6 -129 45 -229q16 -43 43 -85t66 -76t91 -54.5t122 -22.5v606l-70 56q-178 129 -249.5 260t-53 239.5t116.5 184.5t256 94v125h2h16v-123q68 6 148 0q2 -2 14 -2v125h19v-129q51 -10 91 -23.5t72.5 -27t57 -22.5t45.5 -9q25 0 39 13.5t22 29.5 q8 20 15 45h14l-4 -479h-27q6 109 -24 198q-12 39 -36 77t-59.5 71t-87 57.5t-118.5 36.5v-522l166 -139q82 -57 136 -130t77.5 -151t14.5 -154.5t-55 -142t-130 -115t-209 -69.5v-207h-19v203q-37 -4 -77 -7.5t-85 -3.5v-192h-16h-2v192q-68 2 -116 14.5t-84 27t-60.5 25.5 t-44.5 11q-25 0 -39 -12t-25 -27q-10 -18 -14 -39h-10zM392 1266q3 -49 34 -103.5t86 -105.5v352q-66 -16 -94.5 -55t-25.5 -88zM530 10q47 0 88 9.5t74 25.5v434q-4 2 -29.5 21.5t-54.5 42.5q-35 27 -78 59v-592zM530 1040q4 -4 30 -24.5t54 -44.5q35 -29 78 -64v508 q-4 0 -7 1t-7 1q-86 8 -148 -4v-373zM711 57q51 31 77.5 80t27.5 104.5t-24.5 113t-80.5 108.5v-406z" />
<glyph unicode="%" horiz-adv-x="1175" d="M100 -41l979 1493h15l-983 -1499zM129 1096q0 66 20.5 124t55.5 101t81 67.5t99 24.5t100 -24.5t83 -67.5t56.5 -101.5t20.5 -123.5q0 -66 -20.5 -124.5t-56.5 -101.5t-83 -67.5t-100 -24.5t-99 24.5t-81 67.5t-55.5 101.5t-20.5 124.5zM293 1096q0 -61 7 -116.5 t19.5 -96.5t30 -64.5t35.5 -23.5t35.5 23.5t31 64.5t21.5 96t8 117q0 61 -8 117.5t-21.5 97.5t-31 65.5t-35.5 24.5t-35.5 -24.5t-30 -65.5t-19.5 -97.5t-7 -117.5zM498 264q0 66 20.5 123t55 100t81 68t99.5 25t100 -25t82 -68t55.5 -100t20.5 -123t-20.5 -124t-55.5 -101 t-82 -67.5t-100 -24.5t-99.5 24.5t-81 67.5t-55 101.5t-20.5 123.5zM662 264q0 -63 7 -117.5t19 -95.5t30 -64.5t36 -23.5q20 0 37.5 23.5t31 64.5t20.5 95.5t7 117.5q0 61 -7 116.5t-20.5 97.5t-31 65.5t-37.5 23.5q-18 0 -36 -23.5t-30 -65.5t-19 -97t-7 -117z" />
<glyph unicode="&#x26;" horiz-adv-x="1642" d="M74 367q0 45 19.5 94t65.5 98t126 98.5t202 94.5q-18 53 -31.5 98t-29.5 108t-14 117.5t17 100t41 81t54 64.5q68 68 164 109q119 39 193.5 20.5t119.5 -57.5q51 -45 78 -117q33 -90 15 -166q-8 -33 -29 -64.5t-58.5 -59.5t-97 -49.5t-145.5 -29.5q41 -82 93 -170 t116 -170q61 178 129.5 270.5t128.5 133.5q68 47 133 47q43 0 80 -16.5t65.5 -45t45 -65.5t16.5 -80t-16.5 -80t-45 -65.5t-65.5 -45t-80 -16.5t-80 16.5t-65.5 45t-45 65.5t-16.5 80q0 29 10 59q-31 -31 -61 -77q-27 -41 -56.5 -103.5t-52.5 -152.5q29 -39 72 -89.5 t93 -94.5t103.5 -71.5t105.5 -20.5t100.5 57.5t84.5 164.5h11q0 -92 -13.5 -162.5t-35 -124t-49 -89t-56.5 -60.5q-68 -57 -153 -67q-68 -12 -144 4q-66 12 -145.5 53t-163.5 133q-82 -53 -154.5 -82t-134 -39t-113 -6t-92.5 16q-98 29 -163 99q-78 104 -76 209zM334 466 q2 -60 47 -134q49 -78 114.5 -110t127 -39t108.5 0t60 10q-31 27 -68 76.5t-76 118.5t-78 155t-71 186q-41 -31 -81 -68.5t-62.5 -86t-20.5 -108.5zM631.5 1354q-2.5 -37 5.5 -78q8 -47 29 -102q16 -53 36.5 -114t51.5 -124q41 10 65 45q23 29 33 84t-14 152q-16 70 -41 118 q-23 41 -56 68t-82 2q-25 -14 -27.5 -51z" />
<glyph unicode="'" horiz-adv-x="299" d="M0 1255q0 37 14.5 69t40 55.5t60.5 38t73 14.5q80 0 136.5 -50.5t56.5 -126.5q0 -49 -10.5 -97t-30.5 -99q-35 -98 -112.5 -148.5t-166.5 -50.5v17q84 0 158 46t111 142q8 27 14 53.5t10 48.5q-23 -41 -67.5 -65.5t-98.5 -24.5q-39 0 -73.5 14.5t-60 38t-40 56.5 t-14.5 69z" />
<glyph unicode="(" horiz-adv-x="675" d="M82 813q0 143 20.5 263t54 218.5t78 177t89.5 138.5q106 141 243 223h27q-80 -70 -141 -205q-53 -115 -96.5 -312.5t-43.5 -502.5q0 -154 12.5 -279.5t32 -226t44 -178.5t51.5 -135q61 -135 141 -205h-27q-137 82 -243 223q-45 59 -89.5 138t-78 178.5t-54 219.5 t-20.5 265z" />
<glyph unicode=")" horiz-adv-x="675" d="M82 -211q78 70 139 205q27 57 51.5 135t45 177.5t32.5 224t12 278.5t-12 279.5t-32.5 226t-45 178.5t-51.5 135q-61 135 -139 205h27q135 -82 241 -223q45 -59 89 -138t78 -178.5t55.5 -220.5t21.5 -264t-21.5 -263t-55.5 -218.5t-78 -177t-89 -138.5 q-106 -141 -241 -223h-27z" />
<glyph unicode="*" horiz-adv-x="690" d="M61 1311q0 23 9.5 36t21.5 19q12 8 31 8q6 0 29.5 -6t55.5 -15.5t68.5 -20.5t67.5 -21l-221 -66q-25 0 -43.5 19.5t-18.5 46.5zM123 1141.5q-2 15.5 2 29t10 21.5t6 10q4 4 25.5 16.5t51.5 28t63.5 32.5t62.5 32l-111 -201q-18 -18 -44.5 -18t-47.5 18q-16 16 -18 31.5z M125 1466q0 27 16 47q16 16 34 18.5t30 -1.5q14 -6 28 -17q4 -4 16.5 -25.5t28 -51t33 -63.5t33.5 -62l-203 110q-16 18 -16 45zM281 1092q0 6 6 28.5t15 54t20.5 68.5t21.5 68l66 -219q0 -29 -19.5 -47.5t-46.5 -18.5q-25 0 -37 9t-18 21.5t-7 23t-1 12.5zM281 1532 q0 27 19 44t44 17t38 -10t19 -20q8 -14 9 -31q0 -6 -6.5 -29.5t-15.5 -55.5t-21.5 -69t-22.5 -67zM344 1311l109 202q18 18 44.5 18.5t47.5 -18.5q18 -18 20 -34.5t-2 -28.5t-10 -20.5t-8 -8.5q-4 -4 -24.5 -16t-49.5 -27.5t-62.5 -34t-64.5 -32.5zM344 1311l219 63 q29 0 47.5 -19.5t18.5 -43.5q0 -25 -9.5 -38t-21.5 -19.5t-22.5 -7.5t-12.5 -1q-6 0 -28.5 6t-54 15.5t-68.5 21.5t-68 23zM344 1311l201 -109q18 -18 18 -45t-18 -47q-16 -16 -31.5 -19.5t-29 1t-21.5 10.5t-10 8q-4 4 -16.5 25.5t-28 50t-33 62.5t-31.5 63z" />
<glyph unicode="+" horiz-adv-x="1165" d="M10 516v129h504v512h127v-512h514v-131h-512v-516h-125v518h-508z" />
<glyph unicode="," horiz-adv-x="548" d="M82 199q0 31 14.5 59.5t40 51t59 35.5t72.5 13q66 0 119.5 -40t65.5 -93q25 -106 4 -198q-8 -39 -27.5 -79t-55.5 -75t-88.5 -61.5t-127.5 -40.5v16q82 18 134 50t83 69t44 75.5t17 70.5t2 54.5t-2 26.5q-23 -41 -68.5 -65.5t-99.5 -24.5q-39 0 -72.5 12.5t-59 34t-40 50 t-14.5 59.5z" />
<glyph unicode="-" horiz-adv-x="638" d="M123 500v94h393v-94h-393z" />
<glyph unicode="." horiz-adv-x="536" d="M82 156q0 33 14.5 61.5t40 50t59 34.5t72.5 13q76 0 131.5 -47t55.5 -112q0 -66 -55.5 -111t-131.5 -45q-39 0 -72.5 12.5t-59 34t-40 49t-14.5 60.5z" />
<glyph unicode="/" horiz-adv-x="798" d="M0 12l791 1524l8 -8l-791 -1522z" />
<glyph unicode="0" horiz-adv-x="1196" d="M92 715q0 154 33 289t96.5 235t158.5 158.5t218 58.5t218 -58.5t158.5 -158.5t96.5 -235.5t33 -288.5q0 -154 -33 -288t-96.5 -234.5t-158.5 -159t-218 -58.5t-218 58.5t-158.5 159t-96.5 234.5t-33 288zM379 715q0 -145 17.5 -274.5t47 -225.5t69.5 -151.5t85 -55.5 t86 55.5t70.5 151.5t47 225t17.5 275q0 147 -17.5 276t-47 225.5t-70.5 151.5t-86 55t-85 -55t-69.5 -151.5t-47 -225.5t-17.5 -276z" />
<glyph unicode="1" horiz-adv-x="686" d="M82 1137v30q78 23 151 62q63 35 133 90t121 139v-1331q2 -37 15 -64q10 -25 33.5 -44t68.5 -19h-504q43 0 68 19.5t35 43.5q12 27 14 64v911q-2 27 -16 49q-12 18 -40 34t-79 16z" />
<glyph unicode="2" horiz-adv-x="1114" d="M84 1124q0 18 4 41q4 18 10 43t23 54q18 33 49 67.5t81 63t122.5 46t171.5 17.5q104 0 188 -28.5t141.5 -76.5t88 -112.5t30.5 -136.5q0 -66 -20.5 -116t-51 -87t-65.5 -62.5t-65 -39.5q-76 -41 -140.5 -75t-111.5 -60q-55 -31 -103 -58q-104 -55 -167.5 -117.5 t-97.5 -126t-42 -126t0 -115.5q35 111 84 171t106.5 84.5t118 21.5t117.5 -19.5t107.5 -38t87.5 -31.5q45 -14 80.5 -14t64.5 10t49.5 26.5t34.5 37.5q35 47 47 116h6q0 -170 -29.5 -275.5t-79 -160.5t-114 -66.5t-135 7t-143 58.5t-136.5 91q-35 27 -62.5 33t-50 0 t-40 -23.5t-29.5 -37.5q-31 -51 -49 -134h-17q-41 82 -52 155t-1 135.5t36 114.5t58 93q78 98 203 164q129 72 200 153.5t103 151.5q37 82 43 160q0 133 -49 208.5t-122.5 103.5t-160 11.5t-159.5 -67.5q-29 -20 -41 -32.5t-17 -22.5q-6 -10 -2 -17q33 18 76 19 q74 0 126 -52.5t52 -128.5q0 -74 -52 -126t-126 -52t-126 52.5t-52 125.5z" />
<glyph unicode="3" horiz-adv-x="1230" d="M82 348v6v11v-5q6 68 56 115t120 47q72 0 123 -51t51 -123q0 -37 -13 -68.5t-37 -55t-55.5 -38t-68.5 -14.5q-14 0 -26.5 2t-24.5 6q-4 -6 -2 -14t7 -17.5t21 -23.5q84 -70 190.5 -95.5t200 2t158 114.5t66.5 245q2 139 -32 216t-73 112q-47 41 -108 45h-184v35h182 q41 6 74 41q27 29 49 92t20 178q-2 121 -50 193.5t-119.5 102.5t-155.5 17.5t-156 -61.5q-27 -20 -39 -32.5t-16 -22.5q-6 -10 -4 -17q33 18 75 19q37 0 69 -14.5t55.5 -38t36.5 -55.5t13 -68q0 -72 -51 -123.5t-123 -51.5q-74 0 -125 51.5t-51 123.5q0 18 4 41 q4 18 10.5 41.5t22.5 50.5q18 33 49 67.5t80 61t120 44t167 17.5q104 0 185 -27.5t137.5 -74.5t86 -110.5t29.5 -133.5q0 -96 -42 -157.5t-91 -100.5q-57 -45 -131 -70q109 -29 192 -82q37 -23 72 -52.5t62.5 -68t44 -86t16.5 -102.5q0 -84 -36 -159.5t-103.5 -133 t-166 -90.5t-220.5 -33q-147 0 -244.5 33t-157 81t-88.5 101.5t-41 96.5q-10 31 -10 61z" />
<glyph unicode="4" horiz-adv-x="1150" d="M41 418l635 1014h170l2 -981h158q2 0 18 3t35.5 18t35 48t15.5 92v-194h-262v-287q2 -37 14 -65q10 -25 35 -45.5t72 -20.5h-527q47 0 71 20.5t36 45.5q12 29 16 65v287h-524zM88 451h477v753z" />
<glyph unicode="5" horiz-adv-x="1196" d="M61 322q0 39 14.5 72.5t41 59t60.5 41t75 15.5q78 0 132 -55.5t54 -132.5q0 -78 -54 -132.5t-132 -54.5q-51 0 -90 19q90 -96 192.5 -121t194.5 10q55 18 102 54t82 86t54.5 112.5t19.5 134.5q0 76 -19.5 141.5t-54.5 117.5t-82 87t-102 51q-49 14 -99.5 14.5t-100.5 -20 t-99 -64.5t-94 -118h-17l131 793q111 -23 236 -31q106 -8 243.5 -5t284.5 31q6 -109 -73 -188q-35 -35 -91.5 -64.5t-142.5 -51t-206 -29t-281 5.5l-74 -420q18 31 45 65.5t70 65.5t107.5 51.5t160.5 20.5q106 0 186 -19.5t139.5 -52.5t100.5 -73t67 -83q61 -98 72 -225 q-10 -129 -72 -227q-27 -43 -67.5 -84t-100 -73t-139.5 -51.5t-186 -19.5q-109 0 -198 31t-153.5 80t-100.5 110.5t-36 125.5z" />
<glyph unicode="6" horiz-adv-x="1183" d="M61 694q0 188 41 318.5t103.5 215.5t136.5 131t139.5 68.5t112.5 25.5t55 3q135 -2 212 -47t112 -98q16 -25 27.5 -48.5t15.5 -39.5q6 -23 8 -39q8 -72 -36 -129.5t-116 -65.5q-37 -4 -69.5 5.5t-59 29.5t-44 50t-21.5 67t5 69.5t30.5 59t51.5 44t66 21.5q35 6 76 -8 q2 6 -6 14q-6 8 -19.5 19.5t-41.5 28.5q-23 12 -67 27.5t-95 12t-105.5 -33t-98.5 -108.5t-72.5 -217t-28.5 -355v-4q0 2 18.5 30.5t57 62.5t98 61.5t141.5 27.5q84 0 147.5 -19.5t109.5 -52.5t78 -73.5t50 -83.5q45 -100 47 -230q-8 -129 -63 -229q-25 -43 -60.5 -84 t-90 -74t-126 -52.5t-166.5 -19.5q-4 0 -47 2.5t-104.5 20.5t-132 60t-130 122t-99.5 205t-40 309zM354 434q0 -125 24.5 -210t62.5 -137t84 -74.5t89 -22.5q45 0 81 22.5t62.5 74.5t41 137t14.5 210t-14.5 208t-41 132t-62.5 69.5t-81 20.5q-43 0 -89 -26.5t-84 -79.5 t-62.5 -134t-24.5 -190z" />
<glyph unicode="7" horiz-adv-x="974" d="M61 967l23 422h12q-2 -25 0 -43q2 -16 5 -28.5t12 -12.5q80 104 158.5 131.5t149.5 15.5t132 -44t109 -46q90 -29 142 -17.5t81 35.5q33 29 45 76h18q33 -90 25 -190q-6 -86 -52.5 -194.5t-168.5 -223.5q-61 -57 -107.5 -124t-80.5 -137.5t-55.5 -141t-33.5 -136.5 q-31 -154 -31 -309h-305q-33 133 17 283q20 63 60 137t107.5 152.5t167 162.5t238.5 170q82 51 128 108.5t67.5 116t23.5 113.5t-4 103q0 -104 -40 -165t-102.5 -86.5t-140 -21.5t-153.5 27q-66 20 -137.5 34.5t-134 6.5t-107.5 -47t-55 -127h-13z" />
<glyph unicode="8" horiz-adv-x="1247" d="M61 389q0 57 16.5 103.5t44.5 85t61.5 68.5t70.5 52q84 53 192 84q-76 25 -133 70q-49 39 -90 100.5t-41 157.5q4 96 56 172q20 33 53 63.5t81 55t112.5 40t148.5 15.5t148.5 -15.5t111.5 -40t80 -55t55 -63.5q51 -76 57 -172q0 -96 -42 -157.5t-91 -100.5 q-57 -45 -131 -70q109 -31 193 -84q37 -23 70.5 -52.5t61.5 -68t44 -85t16 -103.5q-8 -117 -71 -207q-27 -39 -69 -75.5t-102.5 -66.5t-142.5 -47.5t-188 -17.5q-109 0 -190 17.5t-141 47.5t-101 66.5t-68 75.5q-63 90 -72 207zM360 389q4 -102 35 -184q12 -35 31.5 -68 t48.5 -59.5t68 -42t90 -15.5t90 15.5t67.5 42t49 59.5t32.5 68q31 82 35 184q-4 104 -35 186q-12 35 -32.5 69t-49 60.5t-67.5 43t-90 16.5t-90 -16.5t-68 -43t-48 -60.5t-32 -69q-31 -82 -35 -186zM432 1110q0 -68 12.5 -125t37 -99t62.5 -65.5t89 -23.5q47 0 85 23.5 t63.5 65.5t40 99t14.5 125t-14.5 125t-40 99t-63.5 65.5t-85 23.5q-51 0 -89 -23.5t-62.5 -65.5t-37 -99t-12.5 -125z" />
<glyph unicode="9" horiz-adv-x="1183" d="M63 997q8 129 64 230q25 43 60.5 84t89 73.5t125 52t165.5 19.5q4 0 48 -2t105.5 -20.5t132.5 -60.5t130 -122t99 -204.5t40 -309.5q0 -188 -41 -318t-103.5 -215t-136 -131t-139 -67.5t-112.5 -26t-55 -4.5q-68 2 -121.5 15.5t-92 34t-66.5 46t-46 52.5 q-16 23 -27.5 46.5t-15.5 41.5q-8 23 -8 39q-4 37 6 69.5t30.5 59.5t50 44t66.5 21t70 -6t59.5 -30.5t44 -50t21.5 -66.5q8 -72 -37 -128.5t-117 -66.5q-41 -4 -76 8q-2 -6 7 -14q6 -8 19 -18.5t42 -26.5q23 -12 67 -27.5t95 -12.5t105.5 33t98.5 108.5t72.5 217t28.5 355.5 v2l-19 -29q-18 -28 -57 -62t-98 -61.5t-141 -27.5q-84 0 -147.5 19.5t-109.5 51t-78 72.5t-50 84q-45 100 -48 229zM371 997q0 -125 14 -206.5t40 -131t62.5 -70t79.5 -20.5q45 0 91.5 27t84 80t61 133t23.5 188q0 125 -23.5 211t-61 138.5t-84 75t-91.5 22.5 q-43 0 -79.5 -22.5t-62.5 -75t-40 -138.5t-14 -211z" />
<glyph unicode=":" horiz-adv-x="536" d="M82 156q0 33 14.5 61.5t40 50t59 34.5t72.5 13q76 0 131.5 -47t55.5 -112q0 -66 -55.5 -111t-131.5 -45q-39 0 -72.5 12.5t-59 34t-40 49t-14.5 60.5zM82 887q0 31 14.5 59.5t40 50t59 34.5t72.5 13q76 0 131.5 -47t55.5 -110q0 -66 -55.5 -111t-131.5 -45 q-39 0 -72.5 12.5t-59 34t-40 49t-14.5 60.5z" />
<glyph unicode=";" horiz-adv-x="583" d="M82 199q0 -31 14.5 -59.5t40 -50t59 -34t72.5 -12.5q53 0 99.5 24.5t68.5 65.5q0 -4 2 -26.5t-2 -54.5t-17 -70.5t-44 -75.5t-83 -69t-134 -50v-16q76 14 128 40.5t88 61.5t55.5 75t27.5 79q21 92 -4 198q-12 53 -65.5 93t-119.5 40q-39 0 -72.5 -13t-59 -35.5t-40 -51.5 t-14.5 -59zM129 885q0 31 14.5 59.5t40 51t59 35.5t72.5 13q37 0 71 -13t59.5 -35.5t41 -51.5t15.5 -59q0 -31 -15.5 -59.5t-41 -50t-59.5 -34t-71 -12.5q-39 0 -72.5 12.5t-59 34t-40 50t-14.5 59.5z" />
<glyph unicode="&#x3c;" horiz-adv-x="985" d="M0 442v111l862 485v-125l-735 -421l735 -398v-119z" />
<glyph unicode="=" horiz-adv-x="1214" d="M184 330v100h887v-100h-887zM184 575v103h887v-103h-887z" />
<glyph unicode="&#x3e;" horiz-adv-x="985" d="M123 -25v125l735 422l-735 398v118l862 -467v-110z" />
<glyph unicode="?" horiz-adv-x="1136" d="M94 1130q0 18 4 41q4 18 10.5 42t20.5 53q18 33 49 66.5t81 61t121 45t167 17.5q104 0 194 -27.5t158 -75.5t106.5 -110.5t38.5 -132.5q0 -57 -24.5 -107.5t-58 -90.5t-68.5 -67.5t-53 -39.5q-4 -4 -50.5 -29.5t-100.5 -77t-100 -126t-48 -175.5h-35q-18 55 -17 123 q2 57 24 133t81 162q12 18 36.5 49t47 71t40 85t17.5 90q0 119 -48 192.5t-120.5 102.5t-156.5 17.5t-156 -60.5q-29 -20 -41 -32.5t-16 -22.5q-6 -10 -2 -17q37 16 73 17q37 0 69 -13.5t55.5 -38t37.5 -56.5t14 -69t-14 -68.5t-37.5 -55t-55.5 -37t-69 -13.5 q-72 0 -123 51.5t-51 122.5zM367 150q0 72 51 123t123 51t122 -51t50 -123t-50.5 -123.5t-121.5 -51.5q-72 0 -123 51.5t-51 123.5z" />
<glyph unicode="@" horiz-adv-x="1687" d="M84 354q0 154 31.5 270.5t84 202.5t120 145.5t137.5 98.5q163 91 374 103q47 0 128 -3.5t174.5 -24t186.5 -67.5t162.5 -135t102.5 -226t8 -339q-16 -109 -46.5 -199t-55.5 -127q-27 -47 -67 -71.5t-78 -36.5q-45 -14 -95 -17q-61 2 -108 25q-41 18 -75 60t-34 120v-45 q-6 -25 -19.5 -52.5t-37 -51t-58 -40t-85.5 -16.5q-84 0 -145.5 21.5t-107.5 56.5t-77 79t-49 91q-45 111 -47 250q2 137 43 248q18 47 45.5 92t68.5 80t98.5 56.5t133.5 21.5q72 0 115.5 -25t68.5 -58.5t36 -68.5t17 -55l10 186h285l-10 -143v-627q0 -57 17.5 -85t43 -34 t53 7.5t50.5 39.5q23 31 50.5 116t43.5 208q4 31 9 102.5t-7 159.5t-52 181.5t-124 168t-222.5 119.5t-349.5 37q-186 -14 -331 -100q-61 -37 -122 -94.5t-107 -141.5t-74.5 -196.5t-28.5 -262.5q-2 -188 68 -333q31 -61 78.5 -122t121.5 -107t177.5 -74.5t242.5 -28.5 q92 0 163 16.5t120 36.5q57 23 100 55l10 -6q-41 -37 -98 -63q-49 -25 -123 -44.5t-172 -19.5q-147 0 -258 30t-192.5 77t-138 108.5t-91.5 126.5q-84 152 -92 344zM672 426q0 -137 14 -227t41 -143.5t61.5 -75t75.5 -21.5q53 0 98.5 40t71.5 151v505q-27 104 -71.5 169 t-98.5 65q-41 0 -75.5 -22.5t-61.5 -76t-41 -142.5t-14 -222z" />
<glyph unicode="A" horiz-adv-x="1550" d="M10 0q37 0 65.5 22.5t49.5 51.5q23 33 39 73l500 1285h215l514 -1307q14 -37 37 -64q18 -23 44.5 -42t65.5 -19h-532q47 0 64.5 19.5t21.5 43.5q1 7 1 14q0 24 -10 52l-155 395h-584l-151 -383q-2 -15 -2 -29q0 -23 6 -42q10 -27 39.5 -48.5t95.5 -21.5h-324zM358 559 h560l-281 709z" />
<glyph unicode="B" horiz-adv-x="1249" d="M41 0q47 0 70.5 20.5t35.5 45.5q12 29 17 65v1165q-4 37 -17 68q-12 25 -35.5 46.5t-70.5 21.5h721q68 0 127 -29t103 -79t69.5 -115.5t25.5 -139.5q0 -98 -43 -163.5t-94 -106.5q-61 -47 -137 -72q98 -12 176 -53q33 -18 64.5 -44t57.5 -63t41 -85t15 -111 q0 -80 -23.5 -147.5t-68.5 -117t-109.5 -78t-144.5 -28.5h-780zM444 31h185q78 4 139 41q53 31 96 100.5t43 198.5t-42 197.5t-93 99.5q-59 37 -133 39h-195v-676zM444 741h195q53 4 94 41q35 31 64.5 97.5t29.5 189.5t-29.5 189.5t-64.5 97.5q-41 37 -92 41h-197v-656z" />
<glyph unicode="C" horiz-adv-x="1312" d="M82 737q0 137 29.5 242.5t79 184.5t113 132.5t128.5 87.5q154 82 350 93q84 0 144.5 -18.5t101.5 -40t66 -39t39 -17.5q23 0 37 15.5t20 33.5q8 23 8 49h12l-2 -528h-24v16q0 110 -25 203q-12 43 -31.5 86t-49 81t-71.5 66.5t-98 42.5q-63 15 -116 15q-33 0 -62 -6 q-76 -16 -131 -58.5t-93 -107t-61 -135.5q-55 -168 -57 -398q2 -195 57 -348q23 -66 61 -128t93 -110.5t131 -78t178 -29.5q43 0 83 11.5t72 26.5t53.5 29.5t31.5 22.5q-12 -10 -46 -32.5t-82 -45t-109.5 -41t-129.5 -18.5q-197 10 -350 92q-66 35 -129 88t-112.5 132 t-79 184.5t-29.5 244.5z" />
<glyph unicode="D" horiz-adv-x="1472" d="M61 0q45 0 71 20.5t36 45.5q12 29 14 65v1169q-2 37 -14 66q-10 25 -36 45.5t-71 20.5h510q168 0 293 -31t214 -82t146.5 -114.5t92.5 -131.5q70 -139 70 -310q0 -24 -1 -48q-12 -201 -102 -359q-39 -68 -97.5 -131t-144.5 -113.5t-201.5 -81t-269.5 -30.5h-510zM467 33 h104q100 0 177 29.5t133.5 76.5t95.5 108.5t63 125.5q59 150 68 342q-8 190 -68 342q-25 63 -63.5 124.5t-95 109.5t-133 78t-177.5 30h-104v-1366z" />
<glyph unicode="E" horiz-adv-x="1138" d="M43 0q47 0 71.5 19.5t35.5 43.5q12 29 14 66v1174q-2 35 -14 63q-10 25 -35 45.5t-72 20.5h1014v-316q-4 78 -39 141q-29 53 -92.5 97.5t-180.5 44.5h-299v-641h107q74 0 114 29.5t58 64.5q23 41 27 96v-207v-204q-4 53 -27 94q-18 35 -59 64.5t-115 29.5h-105v-692h283 q123 0 189.5 46t97.5 101q37 66 41 150v-330h-1014z" />
<glyph unicode="F" horiz-adv-x="1136" d="M41 0q45 0 70.5 20.5t35.5 45.5q12 29 15 65v1172q-2 35 -15 63q-10 25 -34.5 45.5t-71.5 20.5h1014v-316q-4 78 -39 141q-29 53 -92.5 97.5t-180.5 44.5h-299v-641h107q74 0 114 29.5t58 64.5q23 41 25 96v-207v-204q-2 53 -25 94q-18 35 -59 64.5t-115 29.5h-105v-594 q0 -37 15 -65q10 -25 35.5 -45.5t72.5 -20.5h-526z" />
<glyph unicode="G" horiz-adv-x="1497" d="M82 717q0 137 29.5 242.5t79 184.5t112 132t127.5 88q154 82 350 92q74 0 131.5 -11t102.5 -30q8 -4 23.5 -11t32.5 -14.5t32.5 -13.5t21.5 -6q25 0 39.5 8t21.5 19.5t10 23t7 19.5h10l-2 -531h-24q-4 137 -35 248q-12 47 -32.5 92t-49.5 80t-67.5 56.5t-90.5 21.5 q-102 0 -180 -29.5t-135 -79t-97 -112t-65 -125.5q-59 -152 -67 -344q6 -162 51 -299q18 -59 48 -117.5t73 -110t100 -91.5t133 -60q42 -11 81 -11q19 0 37 3q56 8 97 24q49 18 88 49v416q-4 31 -16 53q-12 20 -36 37t-71 17h518q-47 0 -71.5 -16.5t-36.5 -37.5 q-14 -23 -16 -53v-520h-7q-2 70 -21.5 99.5t-53.5 30.5h-3q-32 0 -76 -18q-46 -20 -100 -49q-43 -25 -92 -45q-43 -16 -98 -30.5t-115 -14.5q-197 10 -350 93q-66 35 -128 88t-111.5 132t-79 185.5t-29.5 245.5z" />
<glyph unicode="H" horiz-adv-x="1478" d="M41 0q47 0 70.5 20.5t35.5 45.5q12 29 17 65v1169q-4 37 -17 66q-12 25 -35.5 45.5t-70.5 20.5h526q-47 0 -71.5 -20.5t-34.5 -45.5q-12 -29 -15 -66v-516h588v516q-4 37 -16 66q-12 25 -36 45.5t-71 20.5h527q-47 0 -73 -20.5t-36 -45.5q-14 -29 -14 -66l2 -1169 q2 -37 14 -65q10 -25 35 -45.5t72 -20.5h-527q47 0 71 20.5t36 45.5q12 29 16 65v621h-588v-621q2 -37 15 -65q10 -25 34.5 -45.5t71.5 -20.5h-526z" />
<glyph unicode="I" horiz-adv-x="690" d="M82 0q47 0 70.5 20.5t35.5 45.5q12 29 17 65v1169q-4 37 -17 66q-12 25 -35.5 45.5t-70.5 20.5h526q-47 0 -71.5 -20.5t-34.5 -45.5q-12 -29 -15 -66v-1169q2 -37 15 -65q10 -25 34.5 -45.5t71.5 -20.5h-526z" />
<glyph unicode="J" horiz-adv-x="1024" d="M41 275.5v17.5v2v-2q0 37 13.5 68.5t37 55t55 37t66.5 13.5q72 0 123 -51t51 -123t-51 -123t-123 -51q-47 0 -82 20q-8 -2 -10 -8q-2 -4 2 -14.5t20 -24.5q39 -33 100.5 -62.5t153.5 -29.5q66 0 103 37t53 84q20 53 22 123v1079q-4 31 -16 53q-12 20 -35.5 38t-70.5 18 h530q-47 0 -72.5 -17.5t-36.5 -38.5q-14 -23 -14 -53v-1079q-6 -76 -57 -135q-23 -25 -55.5 -49.5t-82 -43t-116 -30t-152.5 -11.5q-104 0 -170.5 32t-105.5 77q-41 47 -57.5 95t-20.5 79q-2 10 -2 17.5zM49 236v2v-2z" />
<glyph unicode="K" horiz-adv-x="1466" d="M41 0q47 0 70.5 20.5t35.5 45.5q12 29 17 65v1169q-4 37 -17 66q-12 25 -35.5 45.5t-70.5 20.5h526q-47 0 -71.5 -20.5t-34.5 -45.5q-12 -29 -15 -66v-671l590 669q29 37 35 66q4 25 -15.5 46.5t-90.5 21.5h319q-37 0 -75 -21.5t-66 -46.5q-35 -29 -66 -66l-348 -403 l574 -791q23 -31 45 -53q20 -20 46.5 -35.5t55.5 -15.5h-569q61 0 80.5 16.5t15.5 36.5q-4 23 -27 53l-411 570l-93 -109v-436q2 -37 15 -65q10 -25 34.5 -45.5t71.5 -20.5h-526z" />
<glyph unicode="L" horiz-adv-x="1165" d="M41 0q47 0 70.5 19.5t35.5 41.5q12 27 17 62v1206q-4 29 -17 51q-12 18 -35.5 35t-70.5 17h526q-45 0 -68.5 -16.5t-35.5 -37.5q-14 -23 -17 -51v-1294h295q63 0 112.5 19.5t85.5 51t60.5 71.5t40.5 83q37 98 43 227v-485h-1042z" />
<glyph unicode="M" horiz-adv-x="1763" d="M20 0q59 0 92 15.5t50 35.5q18 23 20 53v1223q-4 6 -14 23.5t-28.5 35t-44 31t-58.5 13.5h409l46 -109l430 -1057l393 1168h407q-47 0 -72.5 -17.5t-35.5 -38.5q-14 -23 -15 -53v-1194q0 -37 15 -66q10 -25 35.5 -44t72.5 -19h-528q45 0 70.5 19.5t35.5 43.5q12 29 15 66 v1194l-451 -1323h-137l-512 1247v-1143q2 -31 21 -53q16 -20 47.5 -35.5t91.5 -15.5h-355z" />
<glyph unicode="N" horiz-adv-x="1341" d="M41 0q59 0 92 15.5t49 35.5q18 23 21 53v1225q-2 2 -11.5 18.5t-28 35t-45 34t-63.5 15.5h406l661 -1168v1063q-2 29 -18 51q-14 20 -43 37t-82 17h321q-55 0 -83.5 -16.5t-42.5 -37.5q-16 -23 -19 -51v-1327h-229l-690 1268v-1164q2 -31 20 -53q16 -20 48 -35.5 t91 -15.5h-354z" />
<glyph unicode="O" horiz-adv-x="1585" d="M82 717q0 154 56.5 288t152.5 234t225.5 158.5t276.5 58.5t276 -58.5t225.5 -158.5t152.5 -234.5t56 -287.5q0 -154 -56 -289t-152.5 -235.5t-225.5 -159t-276 -58.5t-276.5 58.5t-225.5 159t-152.5 235.5t-56.5 289zM367 717q0 -147 33.5 -276.5t91 -225.5t135.5 -151.5 t166 -55.5t165.5 55.5t135 151.5t91.5 225t34 277q0 147 -34 275t-91.5 224.5t-135 151.5t-165.5 55t-166 -55t-135.5 -151.5t-91 -224.5t-33.5 -275z" />
<glyph unicode="P" horiz-adv-x="1253" d="M41 0q45 0 70.5 20.5t35.5 45.5q12 29 15 65v1167q-2 37 -15 66q-10 25 -35.5 46.5t-70.5 21.5h692q121 -6 219 -54q41 -20 80 -51t70 -76t50 -105.5t19 -139.5q0 -80 -19 -140.5t-50 -105.5t-70 -76t-80 -51q-98 -47 -219 -53h-289v-449q0 -37 15 -65q10 -25 35.5 -45.5 t72.5 -20.5h-526zM444 612h291q49 6 86 50q33 37 60.5 116.5t27.5 227.5q0 147 -27.5 227t-60.5 117q-37 43 -86 49h-291v-2v-785z" />
<glyph unicode="Q" horiz-adv-x="1585" d="M82 717q0 154 56.5 288t152.5 234t225 158.5t277 58.5q147 0 276 -58.5t225.5 -158.5t152.5 -234.5t56 -287.5q0 -154 -55 -288t-151.5 -234.5t-225.5 -160t-274 -59.5q-20 -18 -26.5 -46.5t1.5 -55.5t30.5 -46.5t59.5 -19.5h332q55 0 103.5 -21.5t84 -58t56 -87 t20.5 -107.5q-4 -47 -24 -86q-18 -35 -55.5 -64.5t-108.5 -37.5q31 12 44 41.5t9 60.5t-27.5 55.5t-64.5 24.5h-334q-55 0 -102 22.5t-83 59.5t-56.5 87t-20.5 105q0 37 14 70q10 29 36 57.5t73 46.5q-141 8 -264 68.5t-215.5 161t-144.5 231.5t-52 281zM367 717 q0 -147 33.5 -276.5t91 -225.5t135.5 -151.5t166 -55.5t165.5 55.5t135 151.5t91.5 225t34 277q0 147 -34 275t-91.5 224.5t-135 151.5t-165.5 55t-166 -55t-135.5 -151.5t-91 -224.5t-33.5 -275z" />
<glyph unicode="R" horiz-adv-x="1372" d="M41 0q47 0 70.5 20.5t35.5 45.5q12 29 17 67v1186q-4 37 -17 67q-12 27 -35.5 48.5t-70.5 21.5h711q123 -6 221 -49q41 -18 81 -46t71.5 -69t51 -96t19.5 -127q0 -92 -23.5 -150.5t-60.5 -97.5t-83 -61.5t-93 -40.5q98 0 151.5 -25.5t77.5 -56.5q29 -37 35 -80v-373 q0 -80 23.5 -106.5t52.5 -14t52.5 53.5t23.5 96q0 -90 -34 -138t-75 -71q-49 -27 -108 -29q-61 4 -111 27q-41 20 -76 62t-35 120v373q0 41 -20.5 82t-73.5 45h-364v-551q0 -39 14 -67q10 -25 35.5 -45.5t73.5 -20.5h-537zM455 715h297q49 6 88 45q33 33 61.5 104.5 t28.5 204.5t-28 203.5t-62 103.5q-39 37 -88 43h-297v-704z" />
<glyph unicode="S" horiz-adv-x="1198" d="M123 -23l2 500h25q6 -131 47 -233q18 -43 45.5 -85t67.5 -75t94.5 -52.5t125.5 -19.5q121 0 193 52q71 50 91 124q7 27 8 55q0 49 -22 103q-34 84 -124 152l-227 178q-135 96 -208 193.5t-93 188.5q-8 37 -9 72q-1 50 17 96q30 77 101 131q71 55 179 81q75 18 163 18 q40 0 83 -4q61 -4 107.5 -17.5t82 -27.5t61 -24.5t48.5 -10.5q25 0 40 12.5t23 28.5q8 18 15 41h10l-2 -479h-25q1 17 1 34q0 95 -29 175q-14 39 -40 79t-65 71.5t-95 55t-132 29.5q-39 4 -72 4q-86 -1 -134 -27q-68 -36 -78 -98q-2 -11 -1 -22q0 -53 36 -114 q44 -75 130 -138l322 -268q90 -66 146 -149q57 -83 75 -170q8 -38 8 -76q0 -48 -14 -94q-24 -83 -92 -147.5t-185.5 -104.5t-290.5 -40q-72 0 -123 12.5t-87.5 28t-63.5 27.5t-47 12q-25 0 -40 -12t-24 -27q-8 -18 -12 -39h-12z" />
<glyph unicode="T" horiz-adv-x="1404" d="M61 969v463h1280v-463q-4 119 -41 215q-16 39 -38.5 77.5t-57.5 69.5t-81 49.5t-107 18.5h-172v-1278q2 -35 14 -62q10 -23 35 -41t72 -18h-527q47 0 70.5 18.5t36.5 40.5q12 27 16 62v1278h-184q-59 0 -104.5 -18.5t-79 -49.5t-56 -69.5t-37.5 -77.5q-35 -96 -39 -215z " />
<glyph unicode="U" horiz-adv-x="1484" d="M61 1432h529q-47 0 -72.5 -19.5t-36.5 -42.5q-14 -27 -14 -59v-865q4 -123 41 -219q14 -41 38.5 -81t59.5 -70.5t82 -49t109 -18.5q88 0 155.5 18.5t116.5 49t83 70.5t56 81q53 96 60 219v877q-2 31 -21 53q-16 20 -48 38t-91 18h356q-61 0 -93 -17.5t-48 -38.5 q-18 -23 -20 -53v-877q-8 -133 -64 -235q-25 -45 -60.5 -87t-90 -75t-126 -53.5t-165.5 -20.5q-115 0 -203 20.5t-153.5 53.5t-109.5 75t-73 87q-68 102 -76 235v865q-2 33 -14 59q-10 23 -36 42.5t-71 19.5z" />
<glyph unicode="V" horiz-adv-x="1550" d="M10 1432h533q-47 0 -64.5 -19.5t-21.5 -42.5q-4 -27 8 -61l448 -1143l441 1126q4 17 4 33q0 20 -6 39q-10 27 -39 49.5t-94 22.5h321q-39 0 -66.5 -22.5t-48.5 -51.5q-23 -33 -39 -74l-501 -1286h-213l-514 1309q-14 33 -37 59q-18 23 -46 42.5t-65 19.5z" />
<glyph unicode="W" horiz-adv-x="2379" d="M20 1434h531q-47 0 -63.5 -20.5t-20.5 -43.5q-4 -27 8 -61l430 -1098l277 905l-76 195q-14 35 -37 61q-18 23 -46 42.5t-65 19.5h322h35h176q-47 0 -63.5 -20.5t-20.5 -43.5q-4 -27 8 -61l428 -1096l332 1081q4 17 4 33q0 20 -6 37q-10 27 -40 48.5t-95 21.5h321 q-43 0 -71.5 -21.5t-44.5 -48.5q-20 -31 -33 -70l-348 -1128l-2 -6l-50 -160h-190l-418 1067l-330 -1067h-190l-516 1311q-14 35 -37 61q-18 23 -45 42.5t-64 19.5z" />
<glyph unicode="X" horiz-adv-x="1327" d="M20 0q37 0 70 17.5t57 39.5q29 25 54 58l352 487l-383 725q-23 31 -47 53q-23 20 -49.5 37t-53.5 17h560q-49 0 -63.5 -16.5t-12.5 -37.5q2 -23 20 -53l234 -442l311 432q18 33 21 57q2 23 -13.5 41.5t-68.5 18.5h299q-47 0 -82 -18.5t-62 -41.5q-31 -25 -53 -57 l-336 -465l393 -748q25 -31 50 -53q23 -20 45 -35.5t45 -15.5h-562q57 0 76 16.5t17 36.5q-2 23 -23 53l-244 463l-329 -454q-18 -33 -19 -58q0 -23 19.5 -40t76.5 -17h-299z" />
<glyph unicode="Y" horiz-adv-x="1449" d="M20 1434h525q-49 0 -63.5 -19.5t-12.5 -42.5q2 -27 20 -61l342 -533l361 522q25 37 29 66q4 25 -13.5 46.5t-77.5 21.5h300q-43 0 -79 -21.5t-63 -46.5q-31 -29 -55 -66l-381 -552v-617q2 -37 14 -65q10 -25 35 -45.5t72 -20.5h-527q47 0 71 20.5t36 45.5q12 29 16 65 v619l-399 561q-27 35 -51 61q-23 23 -48.5 42.5t-50.5 19.5z" />
<glyph unicode="Z" horiz-adv-x="1196" d="M61 0l715 1401h-370q-66 0 -114 -18.5t-84 -49t-60.5 -69.5t-41.5 -80q-37 -96 -43 -215v465h1051l-715 -1401h371q63 0 112.5 18.5t86.5 48t61.5 68.5t40.5 80q37 96 43 217v-465h-1053z" />
<glyph unicode="[" horiz-adv-x="540" d="M123 -184v1720h377v-94h-207v-1530h207v-96h-377z" />
<glyph unicode="\" horiz-adv-x="808" d="M0 1532l6 6l803 -1532l-10 -6z" />
<glyph unicode="]" horiz-adv-x="540" d="M41 -90h207v1530h-207v96h377v-1720h-377v94z" />
<glyph unicode="^" horiz-adv-x="567" d="M41 1206l242 226l243 -226l-6 -8l-237 111l-238 -111z" />
<glyph unicode="_" horiz-adv-x="1034" d="M0 -125h1034v-121h-1034v121z" />
<glyph unicode="`" horiz-adv-x="385" d="M21.5 1405q1.5 39 29.5 65q23 25 46.5 29t43 -2t31.5 -16.5t14 -10.5q6 -6 22.5 -35.5t39 -72.5t48.5 -91t48 -91l-297 159q-27 27 -25.5 66z" />
<glyph unicode="a" d="M61 289q0 66 16.5 116t44.5 85.5t61.5 60t70.5 39.5q84 35 195 35q76 0 115.5 16t58.5 37q23 23 24 55v29q0 25 -3 67.5t-22.5 85.5t-64.5 75t-129 32q-31 0 -71 -9t-68.5 -19.5t-34.5 -19.5t35 -9q66 0 110.5 -47.5t44.5 -108.5q0 -66 -44 -109t-111 -47 q-61 0 -107.5 45t-46.5 111q0 55 34 101t86 81t116.5 54.5t126.5 19.5q119 0 199.5 -18.5t133 -46t79 -62.5t37.5 -68.5t12.5 -62.5t1.5 -45v-557q0 -86 25.5 -115t57 -16.5t57 57.5t25.5 107q0 -98 -37.5 -151.5t-82.5 -78.5q-53 -29 -121 -33q-51 0 -97 19 q-39 14 -76.5 46t-54.5 91q-4 -10 -18 -35.5t-40 -52.5t-63.5 -47.5t-86.5 -20.5h-25q-96 0 -170 27q-37 12 -70.5 34.5t-61.5 57.5t-44.5 82t-16.5 113zM371 332q0 -123 21.5 -186.5t47.5 -94.5q31 -37 70 -41q27 0 50.5 17.5t43 42t30.5 52.5t13 50l2 533 q-6 -41 -28.5 -61.5t-53 -34t-65.5 -27t-63.5 -41t-48 -76.5t-19.5 -133z" />
<glyph unicode="b" horiz-adv-x="1245" d="M27 0q49 0 76.5 24.5t39.5 55.5q14 35 17 80v1235q-2 12 -6 35.5t-18.5 47t-40 41t-68.5 17.5h448v-141v-502q6 25 19.5 54.5t38 55t63.5 44t96 18.5q92 0 161 -23.5t119 -62.5t82.5 -87t55.5 -99q49 -119 51 -271q-2 -154 -47 -274q-18 -51 -50 -100.5t-78 -87 t-109.5 -61.5t-147.5 -24q-76 0 -123 27t-73.5 63.5t-39 73.5t-18.5 60v-199h-448zM475 270q27 -117 76.5 -188.5t110.5 -71.5q43 0 80.5 24.5t66.5 83t45 158t16 246.5t-16 245.5t-45 157t-66.5 82t-80.5 23.5q-61 0 -110.5 -45t-76.5 -162v-553z" />
<glyph unicode="c" horiz-adv-x="1054" d="M61 520q8 152 72 273q27 51 68 99t101 87t141 62.5t188 23.5q61 0 125.5 -20.5t117 -56.5t86 -85t33.5 -104q0 -66 -45 -110t-110 -44q-66 0 -111 44t-45 110q0 61 45 108t111 47q41 0 38.5 12.5t-26 26t-59 25.5t-64.5 12q-68 0 -118 -22.5t-87 -58.5t-62.5 -82 t-41.5 -93q-39 -113 -45 -254q0 -121 33.5 -215t87.5 -157q56 -62 122 -90q44 -18 87 -18q23 0 45 5q66 14 122 73.5t88 168.5q0 -2 -11 -50.5t-52 -106.5t-124 -106.5t-226 -48.5q-94 0 -180 28t-153 92.5t-108 169t-43 255.5z" />
<glyph unicode="d" horiz-adv-x="1245" d="M29 522q0 152 51 271q20 51 54 99t84 87t119 62.5t161 23.5q57 0 96 -18.5t63.5 -44t38 -55t19.5 -54.5v643h448q-43 0 -68.5 -17.5t-40 -41t-18.5 -47t-6 -35.5v-1235q2 -45 17 -80q12 -31 38.5 -55.5t77.5 -24.5h-448v199q-6 -23 -18.5 -60t-39 -73.5t-73.5 -63.5 t-123 -27q-84 0 -147.5 24t-109.5 61.5t-78 87t-50 100.5q-45 121 -47 274zM319 522q0 -147 16.5 -246.5t45.5 -158t66.5 -83t80.5 -24.5q61 0 110.5 72t76.5 188v553q-27 117 -76 162t-111 45q-43 0 -80.5 -23.5t-66.5 -82t-45.5 -157t-16.5 -245.5z" />
<glyph unicode="e" horiz-adv-x="1118" d="M61 532q0 113 36 210.5t99.5 169t152.5 112.5t194 41q92 0 163.5 -22.5t125 -60.5t91.5 -86t62 -97q57 -117 72 -264h-8h-275h-397v-34t3 -82t12 -108.5t28.5 -113t50.5 -98.5t78 -60q53 -19 100 -19q29 0 57 8q72 20 126.5 64.5t87 99t41.5 95.5l-5 -23q-6 -24 -19 -59 t-41 -75t-74 -75t-113.5 -57.5t-163.5 -22.5q-94 0 -181.5 29t-154 94.5t-107.5 172t-41 261.5zM377 578h397q0 55 -3 132.5t-21.5 148.5t-59.5 120t-115 49t-114.5 -49t-59 -120t-21.5 -148.5t-3 -132.5z" />
<glyph unicode="f" horiz-adv-x="798" d="M20 1010v34h148v256v9q0 77 33 139q29 55 98.5 101t204.5 46q90 0 164.5 -16t128 -51t83 -89.5t29.5 -131.5q-4 -47 -39.5 -90t-95.5 -43q-59 0 -100 31.5t-41 109.5q0 47 28.5 79.5t88.5 32.5q51 0 59 21.5t-16.5 46.5t-74.5 46.5t-116 21.5q-53 0 -78.5 -41t-36.5 -90 q-7 -41 -7 -91q0 -20 1 -41v-256h185v-34h-185v-856q0 -10 4 -35t17.5 -51.5t40 -47t71.5 -20.5h-579q45 0 71.5 20.5t41 47t17.5 51t3 35.5v856h-148z" />
<glyph unicode="g" horiz-adv-x="1286" d="M42 -510q-1 7 -1 13q0 49 33 89q23 25 51 48q25 18 58.5 33.5t76.5 15.5h610q41 0 62.5 22.5t21.5 50t-20.5 50t-63.5 22.5h-575q-86 0 -132 37t-69 82q-25 53 -28 121q2 55 24 104q18 41 58 79t116 52q-92 57 -145 145.5t-53 192.5q0 86 36.5 163t101 133t151.5 89 t186 33q94 0 176 -29.5t145 -83.5q47 49 96.5 72t88.5 33q36 6 69 6h17q53 -4 90 -44t37 -95q0 -57 -41 -97.5t-99 -40.5q-59 0 -99 40t-40 98q0 43 23.5 77.5t60.5 51.5q-59 -8 -108.5 -39t-86.5 -68q66 -55 105 -132t39 -167q0 -86 -37 -161.5t-101.5 -132t-150.5 -89.5 t-184 -33q-78 0 -145.5 20.5t-127.5 55.5q-47 -12 -76.5 -38.5t-32.5 -53.5t28.5 -47.5t107.5 -20.5h541q68 -4 120 -36q47 -29 85 -87.5t38 -166.5q-4 -55 -26 -97q-20 -37 -62.5 -66.5t-120.5 -29.5h-610q-18 0 -24 -6q-4 -4 1 -16.5t37 -36.5q47 -36 47 -97 q0 -55 -34 -96q-37 -41 -93 -47q-9 -1 -17 -1q-47 0 -85 30q-45 39 -50 96zM334 653q0 -78 16.5 -145.5t46 -118.5t68.5 -79.5t84 -28.5q43 0 82 28.5t68.5 79.5t46 118.5t16.5 145.5q0 76 -16.5 144.5t-46 119t-68.5 80t-82 29.5q-45 0 -84 -29.5t-68.5 -80t-46 -119 t-16.5 -144.5z" />
<glyph unicode="h" horiz-adv-x="1243" d="M20 0q51 0 79 24.5t40 55.5q14 35 17 80v1265q-2 39 -17 72q-12 27 -39.5 49.5t-79.5 22.5h582q-51 0 -78.5 -22.5t-40.5 -49.5q-14 -33 -16 -72v-473q35 41 82 64.5t92 34.5q53 12 107 14q84 -4 151 -33q57 -25 105.5 -79t48.5 -152v-598q1 -86 27 -116q19 -21 39 -21 q9 0 19 4q32 12 58.5 57t26.5 106q0 -96 -38 -148t-83 -77q-53 -29 -119 -33q-66 4 -119 29q-45 23 -80.5 68t-35.5 131v598q0 61 -12.5 99t-33 58.5t-45 26.5t-51.5 2q-61 -8 -139 -59v-928h-447z" />
<glyph unicode="i" horiz-adv-x="622" d="M20 0q51 0 79 24.5t40 53.5q14 35 17 78v749q-2 39 -17 70q-12 27 -39.5 48t-79.5 21h449v-888q2 -43 16 -78q12 -29 39 -53.5t78 -24.5h-582zM156 1346q0 63 45 108t108 45t108.5 -45t45.5 -108t-45 -108.5t-109 -45.5q-63 0 -108 45.5t-45 108.5z" />
<glyph unicode="j" horiz-adv-x="681" d="M-164 -176h2q2 55 42 94t97 39q59 0 99.5 -40t40.5 -99t-40 -100.5t-100 -41.5q-53 0 -54 -19t25.5 -42t69.5 -42t78 -19q55 0 85 38.5t44 85.5q16 55 19 127v1082q0 8 -5.5 34.5t-18.5 53t-40.5 48t-73.5 21.5h451v-1239q-6 -84 -45 -149q-16 -29 -42 -54.5t-63.5 -47 t-89 -34t-118.5 -12.5q-68 0 -118 13.5t-88 35t-63.5 50t-44.5 57.5q-41 68 -49 156v4zM250 1346q0 63 45 108t108 45t108.5 -45t45.5 -108t-45 -108.5t-109 -45.5q-63 0 -108 45.5t-45 108.5z" />
<glyph unicode="k" horiz-adv-x="1329" d="M20 0q49 0 77 21.5t40 50.5q14 31 17 71v1287q0 12 -5.5 34.5t-19.5 46t-40 41t-69 17.5h443v-1002l219 152l100 69q10 6 15.5 13.5t-6.5 11.5q-47 6 -80 43t-33 86q0 53 38 91t91 38t91 -38t38 -91q0 -35 -15.5 -63.5t-41.5 -44.5l-187 -129l463 -611q29 -33 69 -63.5 t85 -30.5h-82h-353h-2l-409 541v-398q2 -41 16 -71q12 -29 40 -50.5t79 -21.5h-578z" />
<glyph unicode="l" horiz-adv-x="571" d="M20 0q47 0 72 20.5t37 45.5q14 29 16 67v1163q-2 37 -16 68q-12 25 -36.5 46.5t-72.5 21.5h408v-1299q0 -39 14 -67q10 -25 36 -45.5t73 -20.5h-531z" />
<glyph unicode="m" horiz-adv-x="1779" d="M20 0q51 0 79 21.5t40 50.5q14 31 17 71v764q-2 37 -17 68q-12 27 -39.5 48t-79.5 21h445v-83q35 41 82 62t90 32q51 10 104 10q51 0 101 -12q41 -10 87 -34t79 -67q35 41 82 64.5t90 34.5q51 12 104 14q86 -4 154 -33q59 -25 107 -78t48 -151v-602q0 -86 26 -115 q18 -20 38 -20q9 0 19 4q32 14 57.5 59t25.5 107q0 -98 -36.5 -150.5t-82.5 -77.5q-53 -29 -118 -33q-66 4 -119 29q-45 23 -82 67t-37 130v602q0 72 -16.5 111.5t-41 57t-55 17.5t-60.5 -9t-54.5 -22.5t-38.5 -21.5q16 -27 24.5 -57.5t8.5 -71.5v-666q2 -41 16 -71 q12 -27 39 -48.5t78 -21.5h-576q49 0 77 21.5t40 48.5q14 31 16 71v666q0 78 -18 119t-47 56q-23 12 -49 12q-7 0 -13 -1q-34 -4 -65 -15t-54.5 -25.5t-29.5 -18.5v-934h-445z" />
<glyph unicode="n" horiz-adv-x="1245" d="M20 0q51 0 79 21.5t40 50.5q14 33 17 73v756q-2 39 -17 72q-12 27 -39.5 49t-79.5 22h447v-92q35 41 82 64.5t92 34.5q53 12 107 14q88 -4 155 -33q59 -25 107.5 -79t48.5 -152v-598q-1 -86 25 -115q18 -20 39 -20q9 0 19 4q32 12 57.5 57t25.5 107q0 -98 -38 -150.5 t-83 -77.5q-53 -29 -119 -33q-66 4 -119 29q-45 23 -81.5 68t-36.5 131v598q0 61 -12.5 100t-33 59.5t-45 25.5t-51.5 1q-61 -8 -139 -61v-781q2 -41 16 -73q12 -29 40 -50.5t79 -21.5h-582z" />
<glyph unicode="o" horiz-adv-x="1247" d="M61 520q0 113 44.5 212t121 173t178 117t218.5 43t219 -43t179 -117t121 -173t44 -212t-44 -212t-121 -173t-179.5 -117t-218.5 -43q-117 0 -218.5 43t-178 117t-121 173.5t-44.5 211.5zM350 520q0 -106 16.5 -196.5t50.5 -157t85 -104t121 -37.5q55 0 104 37.5t87 104 t60.5 157t22.5 196.5t-22.5 196.5t-60.5 157t-87 104.5t-104 38q-70 0 -121 -38t-85 -104.5t-50.5 -156.5t-16.5 -197z" />
<glyph unicode="p" horiz-adv-x="1239" d="M20 1044h445v-202q6 20 18.5 58t40 75t74.5 63.5t125 26.5q84 0 147.5 -23.5t109.5 -62.5t78 -87t50 -99q45 -121 47 -273q0 -154 -51 -272q-23 -51 -56.5 -100.5t-84 -87t-119 -61.5t-160.5 -24q-57 0 -96 18.5t-63.5 44t-39 55.5t-20.5 54v-469q0 -37 14 -65 q10 -25 36 -45.5t73 -20.5h-555q45 0 70.5 20.5t35.5 45.5q12 29 15 65v1213q-2 41 -17 76q-12 29 -39.5 53t-77.5 24zM465 219q29 -117 78 -163t108 -46q45 0 84 24.5t67.5 83t45 157t16.5 245.5t-16.5 245.5t-45 157t-67.5 83t-84 24.5q-59 0 -108 -71.5t-78 -188.5v-551z " />
<glyph unicode="q" horiz-adv-x="1239" d="M84 520q2 152 47 273q18 51 50 99t78 87t109.5 62.5t147.5 23.5q80 0 128 -26.5t74.5 -63.5t38 -75t17.5 -58v202h445q-51 0 -78 -24.5t-39 -52.5q-14 -35 -17 -76v-1215q2 -37 15 -65q10 -25 34.5 -45.5t71.5 -20.5h-555q47 0 70.5 20.5t36.5 45.5q12 29 16 65v471 q-6 -25 -20.5 -54.5t-39 -55t-63.5 -44t-96 -18.5q-92 0 -160.5 24t-120 61.5t-85 87t-54.5 100.5q-51 119 -51 272zM375 520q0 -147 16.5 -245.5t45 -157t67.5 -83t84 -24.5q59 0 108 46t78 163v551q-29 117 -78 188.5t-108 71.5q-45 0 -84 -24.5t-67.5 -83t-45 -157 t-16.5 -245.5z" />
<glyph unicode="r" horiz-adv-x="886" d="M20 813q2 96 39 146.5t82 74.5q53 27 119 33q35 -2 70 -10q29 -8 62.5 -25.5t60.5 -48.5q53 53 113 69q53 15 97 15h11q57 -2 110 -20q2 -1 4 -3q49 -22 69 -74q9 -24 10 -49q0 -28 -13 -55q-23 -54 -76 -74q-25 -10 -50 -9l-56 12q-54 23 -74 76q-10 26 -9 51 q0 27 11 55q18 39 8 54.5t-33.5 12t-55.5 -23t-56 -49.5q16 -25 26.5 -56.5t10.5 -74.5v-695q2 -41 16 -73q12 -29 40 -50.5t79 -21.5h-582q51 0 79 21.5t40 50.5q14 33 16 73v695q0 86 -25.5 115.5t-56 18.5t-57 -55.5t-29.5 -105.5z" />
<glyph unicode="s" horiz-adv-x="894" d="M62 766q-1 13 -1 25q0 53 25 99q31 58 89 99t139 61q58 15 123 15q25 0 52 -2q45 -4 79 -13.5t60.5 -19.5t46 -18t36.5 -8q18 0 29.5 7t17.5 17q8 10 10 27h8l-2 -363h-18q1 12 1 25q0 76 -22 139q-10 31 -29.5 61.5t-48 56t-70.5 43t-98 23.5q-25 2 -47 2q-66 0 -96 -18 q-41 -24 -41 -64t32 -87.5t75 -81.5l299 -259q81 -68 109 -163q13 -42 13 -83q0 -51 -21 -100q-36 -88 -142.5 -149.5t-296.5 -61.5q-53 0 -91 9.5t-66 20.5t-47 20.5t-34 9.5q-18 0 -29.5 -8.5t-17.5 -18.5q-8 -10 -10 -24h-8l2 362h18q-1 -14 -1 -27q0 -82 22 -147 q10 -33 28.5 -63.5t46 -55t66.5 -39t92 -14.5q88 0 141.5 40t68.5 96q6 21 6 43q0 37 -16 76q-26 62 -93 105l-175 132q-104 68 -155 138t-59 136z" />
<glyph unicode="t" horiz-adv-x="808" d="M51 1006v36h148v7q125 59 187.5 114.5t90.5 96.5q31 49 31 88v-306h250v-36h-250v-805q0 -86 25.5 -115t56.5 -16.5t56.5 57.5t25.5 106q0 -98 -37 -150t-82 -77q-53 -29 -119 -33q-66 4 -119 29q-45 23 -80.5 68t-35.5 131l-2 805h-146z" />
<glyph unicode="u" horiz-adv-x="1255" d="M20 799v8v-8zM20 807v6v-6zM37 793v6v-6zM51 1044h443v-806q0 -61 12 -100.5t31.5 -59t44 -24.5t51.5 -1q61 8 139 62v790q0 10 -3 34t-15.5 47.5t-39 40.5t-75.5 17h442v-897q2 -41 17 -73q12 -29 38.5 -51.5t77.5 -22.5h-442v88q-35 -43 -83 -65.5t-91 -32.5 q-53 -12 -104 -15q-86 4 -154 33q-59 25 -106.5 78t-47.5 152v667q-2 10 -4 34t-14 47.5t-39 40.5t-78 17z" />
<glyph unicode="v" horiz-adv-x="1267" d="M20 1044h580q-53 0 -71.5 -21.5t-22.5 -45.5q-1 -7 -1 -14q0 -25 11 -54l315 -688l213 668q4 19 4 37q0 22 -6 41q-10 29 -40.5 53t-102.5 24h348q-37 0 -65.5 -20t-49 -48t-33 -53.5t-16.5 -33.5l-288 -889h-199l-416 911q-18 37 -41 66q-20 25 -49 46t-70 21z" />
<glyph unicode="w" horiz-adv-x="1894" d="M20 1044h580q-53 0 -70.5 -21.5t-21.5 -45.5q-1 -7 -1 -14q0 -25 11 -54l313 -688l121 373l-145 317q-18 37 -41 66q-20 25 -50 46t-71 21h580q-53 0 -70.5 -21.5t-21.5 -45.5q-1 -7 -1 -14q0 -25 11 -54l315 -688l213 668q4 19 4 37q0 22 -6 41q-10 29 -42 53t-103 24 h350q-37 0 -65.5 -20t-49 -48t-33 -53.5t-16.5 -33.5l-291 -889h-198l-248 547l-178 -547h-199l-416 911q-16 37 -39 66q-20 25 -50 46t-71 21z" />
<glyph unicode="x" horiz-adv-x="1265" d="M20 1044h545q-53 0 -66.5 -20t-9.5 -45q6 -29 29 -64l174 -239l148 315q16 33 45.5 53.5t68.5 20.5q53 0 91 -38t38 -91t-37.5 -91t-91.5 -38q-45 0 -79.5 27.5t-45.5 70.5l-118 -254l376 -526q27 -37 54 -64q23 -23 50.5 -42t53.5 -19h-549q57 0 72.5 19.5t11.5 41.5 q-6 27 -30 64l-175 242l-143 -306l-7 -13t-22.5 -29.5t-38 -30t-55.5 -13.5q-53 0 -91 38t-38 91t38 91t91 38q47 0 82 -28.5t45 -73.5l121 260l-379 524q-27 35 -53 64q-23 25 -51.5 45t-53.5 20zM829 905v2v-2z" />
<glyph unicode="y" horiz-adv-x="1269" d="M20 1044h580q-53 0 -70.5 -21.5t-21.5 -47.5q-1 -7 -1 -14q0 -25 11 -54l313 -688l216 670q3 18 3 35q0 23 -6 43q-10 29 -41.5 53t-103.5 24h350q-37 0 -65.5 -20t-50 -48t-34 -53.5t-16.5 -33.5l-454 -1399q6 14 6 35q0 8 -3 23.5t-7 23.5l137 428h-166l-416 911 q-16 37 -39 66q-20 25 -50 46t-71 21zM377 -471q0 53 38 90t91 37t91 -37t38 -90t-38 -91t-91 -38t-91 38t-38 91z" />
<glyph unicode="z" horiz-adv-x="1056" d="M41 0l639 1034h-393q35 -16 57.5 -48t22.5 -73q0 -51 -38 -88t-91 -37t-90 37t-37 88t34.5 88t92.5 43h757l-639 -1034h377q-35 16 -55.5 46t-20.5 69q0 53 37 92t90 39t91 -39t38 -92q0 -51 -35.5 -87t-89.5 -38h-747z" />
<glyph unicode="{" horiz-adv-x="643" d="M12 428v100q68 0 106 19.5t54 44.5q20 29 23 65v428q0 53 16 94.5t44 71t61.5 51t70.5 33.5q84 31 195 35v-82q-70 -10 -111 -36.5t-61.5 -57.5t-25.5 -61.5t-5 -47.5v-299q0 -117 -33 -179t-70.5 -91t-70.5 -34t-35 -7l16 -2q17 -2 39.5 -10t49 -27.5t50 -53.5t39 -86 t15.5 -128v-299q0 -18 5 -49t25.5 -62.5t61.5 -58.5t111 -37v-78q-111 4 -195 35q-37 12 -70.5 32.5t-61.5 51.5t-44 72t-16 94v426q-2 37 -23 65q-16 25 -54 46.5t-106 21.5z" />
<glyph unicode="|" horiz-adv-x="385" d="M123 -133v1614h139v-1614h-139z" />
<glyph unicode="}" horiz-adv-x="643" d="M61 -334q70 10 111 37t61.5 57.5t25.5 61.5t5 47v299q0 117 33 179.5t71 91t70.5 33.5t34.5 7q-2 0 -17.5 2t-38 10.5t-49 28t-50 53t-39 86t-15.5 127.5v299q0 18 -5 49t-25.5 63t-61.5 58.5t-111 36.5v78q109 -4 193 -35q37 -12 71.5 -33.5t62.5 -51t44.5 -70.5 t16.5 -95v-426q2 -39 22 -67q16 -25 53 -45.5t107 -20.5v-100q-70 0 -107 -20.5t-53 -45.5q-20 -29 -22 -63v-428q0 -53 -16.5 -94t-44.5 -72t-62.5 -51.5t-71.5 -32.5q-84 -31 -193 -35v82z" />
<glyph unicode="~" horiz-adv-x="679" d="M82 1264q14 47 37 84q18 31 47 57.5t70 26.5q39 0 94 -15.5t107 -27t94 -8.5t57 42h10q-6 -49 -27 -86q-16 -33 -51 -58.5t-94 -25.5q-55 0 -95 14.5t-77 26t-75 8t-87 -37.5h-10z" />
<glyph unicode="&#xa1;" horiz-adv-x="665" d="M82 -164l240 819h32q63 -211 115 -383q20 -74 41.5 -146.5t37 -132t26 -101.5t10.5 -56q-4 -72 -31 -127q-23 -47 -75 -86t-146 -39q-51 0 -97.5 19.5t-80 54.5t-53 80t-19.5 98zM168 893q0 72 49 122t121 50q37 0 67.5 -13.5t54 -37t37 -55t13.5 -66.5t-13.5 -66.5 t-37 -54t-54 -36t-67.5 -13.5q-72 0 -121 49t-49 121z" />
<glyph unicode="&#xa2;" horiz-adv-x="1073" d="M72 520q6 152 69 273q27 51 68 99t100.5 87t140 62.5t187.5 23.5q86 0 170 -39l92 238h14l-94 -246q78 -35 130 -93.5t52 -129.5q0 -66 -45 -109t-110 -43q-43 0 -80 20.5t-53 51.5l-232 -619q16 -16 35 -32.5t39 -26.5q86 -29 158.5 -8.5t126 63.5t86 97.5t41.5 93.5 q-14 -86 -64 -154q-20 -29 -51 -56.5t-74 -49t-98 -35t-127 -13.5q-59 0 -109 13l-100 -264h-18l100 266q-72 14 -135.5 52t-111.5 102.5t-76.5 157.5t-30.5 218zM383 520q0 -25 2 -75t10 -109.5t25.5 -119.5t50.5 -105l231 626q-6 14 -8 28.5t-2 29.5q0 45 21.5 82.5 t62.5 54.5l27 84q-18 4 -35.5 8t-34.5 4q-66 0 -116 -21.5t-86.5 -57.5t-62.5 -82t-42 -93q-37 -113 -43 -254zM795 944q26 10 51 10q29 0 36 5.5t1 13.5t-24.5 17t-41.5 20z" />
<glyph unicode="&#xa3;" horiz-adv-x="1308" d="M63 125q-8 70 19 117t81 75.5t132 42t174 13.5q0 37 -9 74.5t-25.5 81.5t-40 100.5t-52.5 130.5h-172v16h166q-8 20 -16.5 44t-18.5 50q-20 57 -25.5 131t8 150t45 147.5t85 128t129 91t178.5 34.5q68 0 130 -22.5t107.5 -64.5t68 -101t7.5 -135q-16 -41 -55 -70t-88 -29 q-63 0 -106.5 44.5t-43.5 105.5t43 106.5t107 45.5q39 0 70 -19q8 10 -4.5 27.5t-36 33t-54 26.5t-55.5 11q-84 0 -126 -36.5t-58 -81.5q-20 -53 -19 -117q0 -143 25.5 -264t38.5 -236h254v-16h-254q10 -100 -3.5 -201.5t-72.5 -218.5q94 -53 171 -73.5t138.5 -19.5 t107.5 19.5t81 46.5q82 66 120 183h13q0 -102 -12.5 -179t-34 -132.5t-48 -92.5t-53.5 -59q-66 -53 -145 -56q-51 -8 -103.5 8.5t-103.5 50.5t-100 82t-95 107q-78 -117 -157.5 -169t-147 -56t-112.5 32t-52 93zM85 126q9 -44 36.5 -77t66.5 -33q94 0 149.5 40t84.5 89 q35 55 47 129q-121 47 -200 47.5t-123 -28.5t-57 -76t-4 -91z" />
<glyph unicode="&#xa5;" horiz-adv-x="735" d="M82 1126q0 59 22.5 111.5t61.5 91.5t91.5 61.5t111.5 22.5t111 -22.5t90 -61.5t60.5 -91t22.5 -112q0 -59 -22.5 -111t-60.5 -90t-90 -60.5t-111 -22.5t-111.5 22.5t-91.5 60.5t-61.5 90t-22.5 111zM176 1126q0 -80 55.5 -135t137.5 -55t136 55.5t54 134.5 q0 82 -54 137.5t-136 55.5t-137.5 -55.5t-55.5 -137.5z" />
<glyph unicode="&#xa7;" horiz-adv-x="1187" d="M61 547q0 61 27 114.5t77 93.5t120.5 65.5t158.5 29.5q-162 129 -220 251t-26.5 217t145.5 152.5t298 57.5q131 0 199.5 -37t99.5 -82q37 -53 37 -119q0 -53 -39 -90t-94 -37t-92 38t-37 91t34.5 95.5t86.5 42.5h49q-12 20 -43 36q-27 14 -74 26.5t-127 12.5 q-129 0 -182 -36.5t-49 -92t56 -120t132 -121.5q160 -127 259 -217.5t153.5 -157t73 -116.5t20.5 -97q0 -61 -25.5 -114.5t-76 -93.5t-121 -64.5t-158.5 -30.5q162 -129 211 -252t6 -218.5t-167 -152.5t-308 -57q-131 0 -194.5 37t-90.5 82q-31 53 -24 118q0 53 37.5 90 t91.5 37q53 0 93 -36.5t38 -90.5q0 -53 -36 -95t-91 -42h-23.5t-17.5 -2q6 -20 28 -37q20 -14 63.5 -25.5t125.5 -11.5q129 0 190.5 36t69.5 91.5t-33 120t-119 123.5q-162 125 -260 216t-153.5 157.5t-76 117t-22.5 97.5zM241 740.5q-1 -25.5 9 -52.5q25 -63 112 -141 q10 -16 60.5 -58.5t105.5 -89.5q66 -53 144 -118q4 -2 14 -9.5t12 -9.5q78 2 111 46t30 104.5t-39 127t-98 113.5q-80 61 -126 96t-69.5 53.5t-29.5 23.5t-8 5q-84 0 -132 -12t-71.5 -32.5t-24.5 -46z" />
<glyph unicode="&#xa8;" horiz-adv-x="675" d="M102 1276q0 35 30 64.5t69 29.5q37 0 64.5 -29.5t27.5 -64.5q0 -41 -27.5 -67.5t-64.5 -26.5q-39 0 -69 26.5t-30 67.5zM385 1276q0 35 27.5 64.5t68.5 29.5t66.5 -29.5t25.5 -64.5q0 -41 -25.5 -67.5t-66.5 -26.5t-68.5 26.5t-27.5 67.5z" />
<glyph unicode="&#xa9;" horiz-adv-x="1708" d="M80 711q0 162 61.5 303t167 245.5t246.5 165t301 60.5q158 0 298 -60.5t245.5 -165t167 -246t61.5 -302.5q0 -156 -61.5 -295.5t-167 -243.5t-245.5 -165.5t-298 -61.5q-160 0 -301 61.5t-246.5 165.5t-167 243.5t-61.5 295.5zM254 711q0 -123 48 -231.5t130 -188.5 t191.5 -126t232.5 -46t231.5 46t190.5 126t130 188.5t48 231.5q0 125 -48 236.5t-130 194.5t-190.5 131t-231.5 48t-232.5 -48t-191.5 -131t-130 -194.5t-48 -236.5zM469 733q2 94 32.5 174t86 136.5t132.5 88t169 31.5q53 0 106.5 -10t114.5 -29l-12 -143 q-61 18 -110.5 26.5t-90.5 8.5q-121 0 -193.5 -69.5t-72.5 -213.5q0 -154 80 -236.5t198 -82.5q74 0 189 47l12 -152q-127 -41 -209 -41q-94 0 -173 33t-136 94.5t-90 147.5t-33 190z" />
<glyph unicode="&#xaa;" horiz-adv-x="677" d="M51 975q0 72 32 109.5t73 54.5q45 18 104 18q41 0 62.5 9.5t31.5 19.5q12 12 15 28v17q0 12 -2 36.5t-12.5 47t-35 40t-69.5 17.5q-16 0 -38 -5t-37 -11t-19 -11.5t18 -5.5q35 0 59.5 -24.5t24.5 -59.5t-23.5 -58t-60.5 -26q-35 0 -59.5 25t-24.5 59q0 31 18.5 56.5 t46 44t62.5 29t70 10.5q98 0 149 -20.5t73.5 -48.5t26 -55.5t3.5 -39.5v-301q0 -47 13 -62.5t30.5 -8.5t31 30.5t13.5 56.5q0 -53 -20.5 -80.5t-45.5 -42.5q-29 -16 -63 -18q-29 2 -54 10q-23 8 -42 24.5t-29 49.5q-2 -6 -9.5 -19.5t-21.5 -28t-34.5 -25.5t-47.5 -11 q-59 -2 -104 14q-41 14 -73 49t-32 107zM219 997q0 -66 11.5 -100.5t25.5 -50.5q16 -20 39 -23q14 0 26.5 9.5t22.5 23.5t17.5 28.5t7.5 26.5v289q-4 -35 -28 -45t-51.5 -22.5t-49 -40t-21.5 -95.5z" />
<glyph unicode="&#xab;" horiz-adv-x="808" d="M82 324l260 321h147l-264 -321l264 -322h-147zM340 324l262 321h146l-265 -321l265 -322h-146z" />
<glyph unicode="&#xad;" horiz-adv-x="638" d="M123 500v94h393v-94h-393z" />
<glyph unicode="&#xae;" horiz-adv-x="1652" d="M80 713q0 156 59.5 292t160.5 236t237 158.5t290 58.5t289 -58.5t236.5 -158.5t161 -236.5t59.5 -291.5q0 -152 -59.5 -286t-161 -234.5t-236.5 -160t-289 -59.5t-290 59.5t-237 160t-160.5 234.5t-59.5 286zM248 713q0 -119 46 -223.5t125 -181.5t184 -122t224 -45 q117 0 222.5 45t184.5 122t125 181.5t46 223.5q0 121 -46 227.5t-125 186t-184.5 125.5t-222.5 46q-119 0 -224 -46t-184 -125.5t-125 -186t-46 -227.5zM565 328v774h307q86 0 131.5 -31t65.5 -65q23 -41 27 -95q0 -45 -12.5 -76.5t-32 -53t-44 -34t-49.5 -18.5l185 -401 h-152l-147 334h-135v-334h-144zM709 784h127q41 0 62.5 15.5t31.5 36.5q12 23 14 53q-2 29 -14 51q-10 18 -31.5 34.5t-62.5 16.5h-127v-207z" />
<glyph unicode="&#xb2;" horiz-adv-x="860" d="M123 1253q0 55 26.5 96.5t69.5 67t96.5 37.5t106.5 12q137 0 214 -67.5t77 -161.5q0 -43 -13.5 -75t-33 -56.5t-43 -40.5t-41.5 -27q-49 -27 -91 -49t-73 -39q-37 -20 -66 -37q-68 -35 -109.5 -75.5t-63 -81.5t-27 -82t-0.5 -76q23 72 54.5 112t68 55t76.5 13t77 -12 t69.5 -24.5t57.5 -20.5q59 -18 95 -3t55 42q23 31 30 76h2q0 -111 -19.5 -179.5t-51 -104.5t-73.5 -43t-87 4t-92 38t-88 59q-23 16 -41.5 21.5t-32.5 0.5t-25.5 -15.5t-19.5 -24.5q-20 -33 -33 -86h-10q-27 53 -34 100t-1 87t22.5 74t38.5 60q51 63 132 107q86 47 130 100 t66 99q25 53 29 104q0 86 -32 135t-80 67.5t-103.5 8.5t-102.5 -43q-33 -25 -39 -37q-4 -8 -2 -10q27 10 50 10q49 0 82.5 -34t33.5 -81q0 -49 -33.5 -82.5t-82.5 -33.5q-47 0 -81 33.5t-34 82.5z" />
<glyph unicode="&#xb3;" horiz-adv-x="931" d="M123 743v5v6v-2q4 45 35.5 74.5t77.5 29.5q47 0 79.5 -32.5t32.5 -80.5q0 -47 -32.5 -79.5t-79.5 -32.5q-18 0 -33 6q-2 -4 0 -10q2 -4 4 -10.5t12 -16.5q55 -45 123 -61.5t128 2t102 75t44 156.5q0 92 -20.5 140.5t-46.5 70.5q-31 25 -70 29h-119v22h95q33 2 57 25 q23 18 40 59t17 117t-30.5 123t-77.5 65.5t-101.5 11t-99.5 -39.5q-31 -23 -37 -35q-4 -8 -2 -10q20 12 49 12q47 0 80 -33t33 -80t-33 -79.5t-80 -32.5t-79.5 32.5t-32.5 79.5q0 55 26.5 94t68.5 64t93 37t103 12q66 0 117.5 -17.5t88.5 -48t56.5 -70.5t19.5 -85 q0 -61 -26.5 -102t-59.5 -66q-37 -29 -84 -43q70 -18 123 -53q47 -29 86 -78t39 -121q0 -55 -23.5 -103t-66.5 -84t-105.5 -57.5t-142.5 -21.5q-51 0 -111.5 12t-112.5 40t-88 73t-36 112z" />
<glyph unicode="&#xb4;" horiz-adv-x="385" d="M41 1176l162 297q27 27 65.5 26.5t67.5 -26.5q23 -27 26 -50.5t-4 -42.5q-8 -23 -22 -41q-6 -6 -37 -23.5t-74 -41t-92 -50t-92 -48.5z" />
<glyph unicode="&#xb6;" horiz-adv-x="782" d="M72 1049q6 100 51 182q18 33 48 65.5t74 59t102.5 42t135.5 15.5h258q-23 0 -35 -11t-18 -24q-8 -14 -8 -32v-861q-2 -111 -22.5 -213t-92.5 -192q-61 -72 -117.5 -115t-130.5 -43q-84 0 -139 47t-55 115q0 47 33.5 74.5t70.5 27.5q12 0 27.5 -3t30 -12t24.5 -27.5 t10 -47.5q0 -10 -2 -24.5t-11 -27.5t-29.5 -22.5t-57.5 -9.5q0 -25 25.5 -48t72.5 -23q33 0 72 17t73 71.5t55.5 155t21.5 266.5v235h-56q-78 0 -136 15.5t-102 41t-74 57t-48 66.5q-45 80 -51 183zM377 1049q0 -135 24.5 -205t55.5 -101q37 -37 82 -38v690q-45 -12 -82 -52 q-31 -35 -55.5 -103.5t-24.5 -190.5zM461 -4q35 31 71.5 67.5t66.5 92t49.5 134.5t19.5 195v916h-119v-928q0 -135 -17.5 -259t-70.5 -218z" />
<glyph unicode="&#xb8;" horiz-adv-x="516" d="M41 -299l6 10q35 -25 84 -42t93 -20t76 12t32 56q0 35 -42 53.5t-91 26.5q-59 8 -133 8l174 197h14l-82 -100q94 2 154.5 -12.5t94.5 -37t45 -48t7 -46.5q-8 -39 -48 -71.5t-100.5 -46t-135 -1t-148.5 61.5z" />
<glyph unicode="&#xb9;" horiz-adv-x="587" d="M123 1264v20q51 10 100 33q41 18 86 52t80 89v-854q2 -23 10 -41q8 -16 22.5 -28.5t43.5 -12.5h-330q29 0 44.5 12.5t23.5 28.5q8 18 10 41v598q-4 16 -12 31q-10 10 -26.5 20.5t-51.5 10.5z" />
<glyph unicode="&#xba;" horiz-adv-x="772" d="M82 1098q0 61 23.5 115.5t65.5 94.5t97.5 63.5t116.5 23.5t117.5 -23.5t97.5 -63.5t65.5 -94.5t24.5 -115.5q0 -59 -24.5 -112.5t-65.5 -93.5t-96 -63.5t-119 -23.5q-61 0 -116.5 23.5t-97.5 63.5t-65.5 93t-23.5 113zM240 1098q0 -113 34.5 -190t110.5 -77 q29 0 55.5 20.5t48 56.5t34 85t12.5 105q0 57 -12.5 106t-33 86t-48 57.5t-56.5 20.5q-76 0 -110.5 -78t-34.5 -192z" />
<glyph unicode="&#xbb;" horiz-adv-x="808" d="M61 2l265 322l-265 321h146l262 -321l-262 -322h-146zM319 2l265 322l-265 321h148l260 -321l-260 -322h-148z" />
<glyph unicode="&#xbc;" horiz-adv-x="1167" d="M61 1188v20q49 8 95 29q39 16 81 48t74 85v-797q0 -20 8 -36q6 -14 20.5 -25.5t41.5 -11.5h-307q27 0 42 11t21 26q8 16 8 36v557q-2 16 -10 29q-8 10 -25.5 19.5t-48.5 9.5zM129 -68l741 1483h17l-742 -1483h-16zM492 246l14 20h2l346 572h100v-572h95q16 2 28 13 q10 10 19.5 28.5t9.5 52.5v-94v-20h-152v-168q0 -23 9 -39q6 -16 20 -27.5t43 -11.5h-307q27 0 42 11.5t21 27.5q8 16 9 39v168h-283h-12h-4zM520 266h271v443z" />
<glyph unicode="&#xbd;" horiz-adv-x="1169" d="M61 1186q29 0 45.5 -9.5t24.5 -19.5q8 -12 10 -29v-550q0 -23 -8 -39q-6 -14 -20.5 -25.5t-40.5 -11.5h305q-27 0 -41 11t-21 26q-8 16 -8 39v790q-31 -53 -72.5 -84t-80.5 -49q-45 -23 -93 -31v-18zM119 -61l739 1476h14l-737 -1476h-16zM555 664q0 -41 28.5 -73 t73.5 -32q43 0 75 32t32 73q0 43 -32 73.5t-75 30.5q-25 0 -45 -10q-2 4 2 10q4 4 11.5 12t23.5 21q43 29 93.5 39t93.5 -6.5t71.5 -61.5t28.5 -125q-4 -45 -27 -92q-20 -41 -60 -89t-116 -91q-74 -41 -119 -96q-39 -47 -55 -120t31 -171h8q10 49 29 80q16 27 41.5 38 t64.5 -18q57 -47 123 -76.5t122 -18.5t93 78.5t37 217.5h-4q-6 -41 -27 -68q-16 -23 -48 -38t-85 1q-31 10 -81 31t-102 22t-101.5 -32t-79.5 -131q-4 31 0 67.5t24.5 74.5t58 75t99.5 69q27 14 59 33q29 16 66 36t80 42q18 8 38.5 23.5t38 37t29.5 50t12 65.5q0 43 -17 82 t-51 67.5t-82 46t-108 17.5q-49 0 -98 -11t-87 -36t-62.5 -61.5t-24.5 -87.5z" />
<glyph unicode="&#xbe;" horiz-adv-x="1327" d="M61 727v4v6v-2q4 41 33 67.5t70 26.5t71.5 -29.5t30.5 -72.5q0 -41 -30.5 -71.5t-71.5 -30.5q-10 0 -31 4q-2 -4 0 -8t4 -9.5t13 -13.5q49 -41 110.5 -56.5t115.5 1t92 68t40 141.5q0 82 -19.5 127t-42.5 65q-27 23 -63 27h-107v18h86q29 2 52 23q20 16 36.5 53t16.5 106 q0 70 -28.5 113t-70.5 59.5t-91.5 10.5t-90.5 -35q-16 -12 -22 -20.5t-10 -12.5q-4 -6 -2 -10q20 10 43 10q41 0 71.5 -29.5t30.5 -72.5q0 -41 -30.5 -71t-71.5 -30t-72 30t-31 71q0 10 2 22q4 27 19 56q10 20 28.5 39.5t47 36t69.5 26.5t98 10q121 0 188.5 -60.5 t67.5 -142.5q0 -55 -24.5 -92t-52.5 -59q-35 -25 -76 -39q61 -18 110 -49q41 -27 77 -70.5t36 -109.5q0 -49 -20.5 -92.5t-59.5 -77t-96 -53t-129 -19.5q-68 0 -117 12.5t-84 31.5t-56.5 43t-33.5 46q-12 27 -18 49q-6 14 -7 35zM328 -63l741 1484h16l-741 -1484h-16z M649 250l8 10l289 475l39 68l25 41h2h98l2 -576h92l10 2q11 2 22 11.5t20.5 28t9.5 52.5v-94v-18h-154v-170q0 -23 8 -39q6 -14 20.5 -25.5t43.5 -11.5h-310q27 0 42.5 11.5t21.5 25.5q8 16 8 39v170h-280h-15h-2zM678 268h268v443z" />
<glyph unicode="&#xbf;" horiz-adv-x="1136" d="M92 -70q0 -70 39 -132t106.5 -110t158 -76t194.5 -28q96 0 166.5 17.5t121 45t81 61.5t49.5 67q14 27 20 51t10 43q4 23 4 41q0 72 -51 123t-123 51q-37 0 -68.5 -13.5t-55 -37t-38 -55t-14.5 -68.5t14.5 -68.5t38 -56.5t55 -38t68.5 -13t74 16q4 -6 -2 -16 q-4 -10 -17.5 -23.5t-39.5 -32.5q-72 -49 -157 -60t-156.5 17.5t-120 101.5t-48.5 193q0 45 17.5 90.5t40 85t47 70.5t37.5 49q59 86 80.5 162t23.5 133q2 68 -16 123h-35q-2 -100 -48 -175t-100.5 -126t-100.5 -77.5t-50 -28.5q-18 -12 -53 -40t-69 -68t-58.5 -90 t-24.5 -108zM424 891q0 72 50 123t122 51t123 -51t51 -123t-51 -123t-123 -51t-122 51t-50 123z" />
<glyph unicode="&#xc0;" horiz-adv-x="1550" d="M10 0h324q-66 0 -95.5 21.5t-39.5 48.5q-10 31 -4 71l151 383h584l155 -395q12 -37 9 -66q-4 -25 -21.5 -44t-64.5 -19h532q-39 0 -65.5 19.5t-44.5 41.5q-23 27 -37 64l-514 1307h-215l-500 -1285q-16 -41 -39 -73q-20 -29 -49 -51.5t-66 -22.5zM358 559l279 709 l281 -709h-560zM486 1792q1 39 30 66q23 25 46.5 28.5t43 -2.5t31.5 -16t14 -10q6 -6 22.5 -36t39 -73t48 -91t48.5 -91l-297 159q-27 27 -26 66z" />
<glyph unicode="&#xc1;" horiz-adv-x="1529" d="M10 0h324q-66 0 -95.5 21.5t-39.5 48.5q-10 31 -4 71l151 383h584l155 -395q12 -37 9 -66q-4 -25 -21.5 -44t-64.5 -19h532q-39 0 -65.5 19.5t-44.5 41.5q-23 27 -37 64l-514 1307h-215l-500 -1285q-16 -41 -39 -73q-20 -29 -49 -51.5t-66 -22.5zM358 559l279 709 l281 -709h-560zM727 1569l162 297q27 27 65.5 26.5t67.5 -26.5q23 -27 26 -50.5t-4 -41.5q-8 -23 -22 -41q-6 -6 -37 -23.5t-74 -41t-92 -50.5t-92 -49z" />
<glyph unicode="&#xc3;" horiz-adv-x="1550" d="M10 0h324q-66 0 -95.5 21.5t-39.5 48.5q-10 31 -4 71l151 383h584l155 -395q12 -37 9 -66q-4 -25 -21.5 -44t-64.5 -19h532q-39 0 -65.5 19.5t-44.5 41.5q-23 27 -37 64l-514 1307h-215l-500 -1285q-16 -41 -39 -73q-20 -29 -49 -51.5t-66 -22.5zM358 559l279 709 l281 -709h-560zM520 1579q14 47 37 84q18 31 47 57.5t70 26.5q39 0 94 -15.5t107.5 -26.5t94.5 -8t56 42h10q-6 -49 -26 -86q-16 -33 -51 -58.5t-95 -25.5q-55 0 -95 14t-77 25.5t-74.5 8.5t-87.5 -38h-10z" />
<glyph unicode="&#xc4;" horiz-adv-x="1550" d="M10 0h324q-66 0 -95.5 21.5t-39.5 48.5q-10 31 -4 71l151 383h584l155 -395q12 -37 9 -66q-4 -25 -21.5 -44t-64.5 -19h532q-39 0 -65.5 19.5t-44.5 41.5q-23 27 -37 64l-514 1307h-215l-500 -1285q-16 -41 -39 -73q-20 -29 -49 -51.5t-66 -22.5zM358 559l279 709 l281 -709h-560zM516 1663q0 35 29.5 64.5t68.5 29.5q37 0 65 -29.5t28 -64.5q0 -41 -28 -67.5t-65 -26.5q-39 0 -68.5 26.5t-29.5 67.5zM799 1663q0 35 27.5 64.5t68.5 29.5t66.5 -29.5t25.5 -64.5q0 -41 -25.5 -67.5t-66.5 -26.5t-68.5 26.5t-27.5 67.5z" />
<glyph unicode="&#xc5;" horiz-adv-x="1550" d="M10 0q37 0 65.5 22.5t49.5 51.5q23 33 39 73l500 1285h215l514 -1307q14 -37 37 -64q18 -23 44.5 -42t65.5 -19h-532q47 0 64.5 19.5t21.5 43.5q4 29 -9 66l-155 395h-584l-151 -383q-6 -41 4 -71q10 -27 39.5 -48.5t95.5 -21.5h-324zM358 559h560l-281 709zM594 1733 q0 66 47 112.5t117 46.5q66 0 113 -47t47 -112q0 -66 -47.5 -115t-112.5 -49q-35 0 -64.5 13t-52.5 35.5t-35 52.5t-12 63zM684 1733q0 -63 15.5 -108.5t58.5 -45.5q41 0 55 45t14 109q0 63 -14 106t-55 43q-43 0 -58.5 -43t-15.5 -106z" />
<glyph unicode="&#xc6;" horiz-adv-x="1744" d="M10 -2q37 0 66.5 22.5t50 50t33.5 49.5l12 23l565 1196q-4 14 -11 29.5t-21.5 29t-35 23t-48.5 9.5h1015v-316q-4 78 -39 141q-29 53 -92 97.5t-180 44.5h-299v-641h104q74 0 114 29.5t59 64.5q23 41 26 94v-207v-205q-4 53 -26 95q-18 35 -59.5 64.5t-115.5 29.5h-102 v-690h283q123 0 189.5 46t96.5 101q37 66 41 148v-328h-1015q47 0 70.5 19.5t35.5 43.5q12 29 16 66v397h-354l-184 -385q-10 -41 -2 -71q8 -27 34.5 -48.5t92.5 -21.5h-320zM401 557h342v705z" />
<glyph unicode="&#xc7;" horiz-adv-x="1220" d="M82 768q0 129 27.5 227.5t72.5 171t102.5 121.5t118.5 82q143 76 324 86q66 0 117 -12t92 -29q8 -4 22.5 -10t30 -12.5t29.5 -11.5t20 -5q23 0 36 7.5t19.5 16.5t9.5 20.5t7 17.5h8v-490h-24q-4 129 -31 230q-12 43 -29.5 85t-44 73.5t-62.5 52t-81 20.5 q-94 0 -166 -27.5t-125 -72.5t-89 -103.5t-60 -118.5q-55 -141 -64 -319q8 -178 64 -317q25 -59 60.5 -115.5t88.5 -102t125 -72t166 -26.5q39 0 73.5 10.5t63.5 23.5t49.5 27.5t30.5 20.5q-12 -10 -43 -30.5t-75 -43t-100.5 -39t-117.5 -16.5h-6l-64 -80q82 2 134.5 -10 t82 -30.5t39 -41t7.5 -41.5q-6 -35 -42 -62.5t-88.5 -39.5t-117 -2t-129.5 53l8 8q31 -20 73 -35.5t79.5 -17.5t64.5 11.5t29 49.5q0 31 -37 46.5t-80 21.5q-51 8 -115 4l148 166q-23 2 -79 10t-126 32t-145.5 69t-138 119.5t-102.5 184t-40 265.5z" />
<glyph unicode="&#xc8;" horiz-adv-x="1138" d="M43 0h1014v330q-4 -84 -41 -150q-31 -55 -97.5 -101t-189.5 -46h-283v692h105q74 0 115 -29.5t59 -64.5q23 -41 27 -94v204v207q-4 -55 -27 -96q-18 -35 -58 -64.5t-114 -29.5h-107v641h299q117 0 180.5 -44t92.5 -98q35 -63 39 -141v316h-1014q47 0 71.5 -20.5 t35.5 -45.5q12 -29 14 -63v-1174q-2 -37 -14 -66q-10 -25 -35 -44t-72 -19zM306 1792q1 39 30 66q23 25 46.5 28.5t42.5 -2.5t31.5 -16t14.5 -10q6 -6 22.5 -36t39 -73t48 -91t48.5 -91l-297 159q-27 27 -26 66z" />
<glyph unicode="&#xc9;" horiz-adv-x="1138" d="M43 0h1014v330q-4 -84 -41 -150q-31 -55 -97.5 -101t-189.5 -46h-283v692h105q74 0 115 -29.5t59 -64.5q23 -41 27 -94v204v207q-4 -55 -27 -96q-18 -35 -58 -64.5t-114 -29.5h-107v641h299q117 0 180.5 -44t92.5 -98q35 -63 39 -141v316h-1014q47 0 71.5 -20.5 t35.5 -45.5q12 -29 14 -63v-1174q-2 -37 -14 -66q-10 -25 -35 -44t-72 -19zM475 1569l162 297q27 27 65.5 26.5t67.5 -26.5q23 -27 26 -50.5t-3 -41.5q-8 -23 -23 -41q-6 -6 -37 -23.5t-74 -41t-92 -50.5t-92 -49z" />
<glyph unicode="&#xcb;" horiz-adv-x="1138" d="M43 0h1014v330q-4 -84 -41 -150q-31 -55 -97.5 -101t-189.5 -46h-283v692h105q74 0 115 -29.5t59 -64.5q23 -41 27 -94v204v207q-4 -55 -27 -96q-18 -35 -58 -64.5t-114 -29.5h-107v641h299q117 0 180.5 -44t92.5 -98q35 -63 39 -141v316h-1014q47 0 71.5 -20.5 t35.5 -45.5q12 -29 14 -63v-1174q-2 -37 -14 -66q-10 -25 -35 -44t-72 -19zM315 1663q0 35 30 64.5t69 29.5q37 0 64.5 -29.5t27.5 -64.5q0 -41 -27.5 -67.5t-64.5 -26.5q-39 0 -69 26.5t-30 67.5zM598 1663q0 35 27.5 64.5t68.5 29.5t66.5 -29.5t25.5 -64.5 q0 -41 -25.5 -67.5t-66.5 -26.5t-68.5 26.5t-27.5 67.5z" />
<glyph unicode="&#xcc;" horiz-adv-x="727" d="M83 1796.5q1 38.5 30 65.5q23 25 46 28.5t42.5 -2.5t32 -16t14.5 -10q6 -6 22.5 -36t39 -73t48 -91t48.5 -91l-297 160q-27 27 -26 65.5zM119 0h526q-47 0 -71.5 20.5t-34.5 45.5q-12 29 -15 65v1169q2 37 15 66q10 25 34.5 45.5t71.5 20.5h-526q47 0 70.5 -20.5 t35.5 -45.5q12 -29 17 -66v-1169q-4 -37 -17 -65q-12 -25 -35.5 -45.5t-70.5 -20.5z" />
<glyph unicode="&#xcd;" horiz-adv-x="708" d="M82 0h526q-47 0 -71.5 20.5t-34.5 45.5q-12 29 -15 65v1169q2 37 15 66q10 25 34.5 45.5t71.5 20.5h-526q47 0 70.5 -20.5t35.5 -45.5q12 -29 17 -66v-1169q-4 -37 -17 -65q-12 -25 -35.5 -45.5t-70.5 -20.5zM303 1569l162 297q27 27 65.5 26.5t67.5 -26.5 q23 -27 26 -50.5t-3 -41.5q-8 -23 -23 -41q-6 -6 -37 -23.5t-74 -41t-92 -50.5t-92 -49z" />
<glyph unicode="&#xcf;" horiz-adv-x="690" d="M82 0h526q-47 0 -71.5 20.5t-34.5 45.5q-12 29 -15 65v1169q2 37 15 66q10 25 34.5 45.5t71.5 20.5h-526q47 0 70.5 -20.5t35.5 -45.5q12 -29 17 -66v-1169q-4 -37 -17 -65q-12 -25 -35.5 -45.5t-70.5 -20.5zM111 1663q0 35 28.5 64.5t69.5 29.5q37 0 64.5 -29.5 t27.5 -64.5q0 -41 -27.5 -67.5t-64.5 -26.5q-39 0 -68.5 26.5t-29.5 67.5zM393 1663q0 35 27.5 64.5t68.5 29.5t67 -29.5t26 -64.5q0 -41 -26 -67.5t-67 -26.5t-68.5 26.5t-27.5 67.5z" />
<glyph unicode="&#xd0;" horiz-adv-x="1353" />
<glyph unicode="&#xd1;" horiz-adv-x="1341" d="M41 0h354q-59 0 -91 15.5t-48 35.5q-18 23 -20 53v1164l690 -1268h229v1327q2 29 19 51q14 20 42.5 37t83.5 17h-321q53 0 82 -16.5t43 -37.5q16 -23 18 -51v-1063l-661 1168h-406q37 0 63.5 -15.5t45 -34t28 -35t11.5 -18.5v-1225q-2 -31 -21 -53q-16 -20 -49 -35.5 t-92 -15.5zM473 1579q14 47 37 84q18 31 47 57.5t70 26.5q39 0 94 -15.5t107.5 -26.5t94.5 -8t56 42h10q-6 -49 -26 -86q-16 -33 -51 -58.5t-95 -25.5q-55 0 -95 14t-77 25.5t-75 8.5t-87 -38h-10z" />
<glyph unicode="&#xd2;" horiz-adv-x="1585" d="M82 717q0 -154 56.5 -289t152.5 -235.5t225 -159t277 -58.5q147 0 276 58.5t225.5 159t152.5 235.5t56 289t-56 288t-152.5 234t-225.5 158.5t-276 58.5t-276.5 -58.5t-225.5 -158.5t-152.5 -234.5t-56.5 -287.5zM367 717q0 147 33.5 275t91 224.5t135.5 151.5t166 55 t165.5 -55t135 -151.5t91.5 -224.5t34 -275t-34 -276.5t-91.5 -225.5t-135 -151.5t-165.5 -55.5t-166 55.5t-135.5 151.5t-91 225t-33.5 277zM515 1796.5q1 38.5 30 65.5q23 25 46 28.5t42.5 -2.5t32 -16t14.5 -10q6 -6 22.5 -36t39 -73t48 -91t48.5 -91l-297 160 q-27 27 -26 65.5z" />
<glyph unicode="&#xd3;" horiz-adv-x="1585" d="M82 717q0 -154 56.5 -289t152.5 -235.5t225 -159t277 -58.5q147 0 276 58.5t225.5 159t152.5 235.5t56 289t-56 288t-152.5 234t-225.5 158.5t-276 58.5t-276.5 -58.5t-225.5 -158.5t-152.5 -234.5t-56.5 -287.5zM367 717q0 147 33.5 275t91 224.5t135.5 151.5t166 55 t165.5 -55t135 -151.5t91.5 -224.5t34 -275t-34 -276.5t-91.5 -225.5t-135 -151.5t-165.5 -55.5t-166 55.5t-135.5 151.5t-91 225t-33.5 277zM727 1569l162 297q27 27 65.5 26.5t67.5 -26.5q23 -27 26 -50.5t-4 -41.5q-8 -23 -22 -41q-6 -6 -37 -23.5t-74 -41t-92 -50.5 t-92 -49z" />
<glyph unicode="&#xd5;" horiz-adv-x="1585" d="M82 717q0 -154 56.5 -289t152.5 -235.5t225 -159t277 -58.5q147 0 276 58.5t225.5 159t152.5 235.5t56 289t-56 288t-152.5 234t-225.5 158.5t-276 58.5t-276.5 -58.5t-225.5 -158.5t-152.5 -234.5t-56.5 -287.5zM367 717q0 147 33.5 275t91 224.5t135.5 151.5t166 55 t165.5 -55t135 -151.5t91.5 -224.5t34 -275t-34 -276.5t-91.5 -225.5t-135 -151.5t-165.5 -55.5t-166 55.5t-135.5 151.5t-91 225t-33.5 277zM530 1577q14 47 37 84q18 31 47 57.5t70 26.5q39 0 94.5 -15.5t107.5 -26.5t94 -8t56 42h11q-6 -49 -27 -86q-16 -33 -51 -58.5 t-95 -25.5q-55 0 -95 14t-76.5 25.5t-74.5 8.5t-87 -38h-11z" />
<glyph unicode="&#xd6;" horiz-adv-x="1585" d="M82 717q0 -154 56.5 -289t152.5 -235.5t225 -159t277 -58.5q147 0 276 58.5t225.5 159t152.5 235.5t56 289t-56 288t-153.5 234t-226.5 158.5t-274 58.5q-147 0 -276.5 -58.5t-225.5 -158.5t-152.5 -234.5t-56.5 -287.5zM367 717q0 147 33.5 275t91 224.5t135.5 151.5 t166 55t165.5 -55t135 -151.5t91.5 -224.5t34 -275t-34 -276.5t-91.5 -225.5t-135 -151.5t-165.5 -55.5t-166 55.5t-135.5 151.5t-91 225t-33.5 277zM557 1663q0 35 29.5 64.5t68.5 29.5q37 0 65 -29.5t28 -64.5q0 -41 -28 -67.5t-65 -26.5q-39 0 -68.5 26.5t-29.5 67.5z M840 1663q0 35 27.5 64.5t68.5 29.5t66.5 -29.5t25.5 -64.5q0 -41 -25.5 -67.5t-66.5 -26.5t-68.5 26.5t-27.5 67.5z" />
<glyph unicode="&#xd8;" horiz-adv-x="1644" d="M82 -18l229 221q-92 100 -146 231t-54 281q0 154 56 289t152.5 235t225.5 158.5t276 58.5q160 0 297 -65.5t236 -180.5l196 191l13 -4l-203 -195q82 -98 128 -222t46 -265q0 -154 -56.5 -289t-152.5 -234.5t-226 -158t-278 -58.5q-147 0 -276 58.5t-228 161.5l-223 -215z M397 715q0 -102 17.5 -194.5t46.5 -174.5l735 711q-55 166 -153.5 265t-221.5 99q-88 0 -164.5 -55t-134 -151.5t-91.5 -224.5t-34 -275zM465 336q57 -147 150.5 -237.5t205.5 -90.5q88 0 166 55.5t135.5 151.5t91 224.5t33.5 275.5q0 178 -47 329z" />
<glyph unicode="&#xd9;" horiz-adv-x="1484" d="M61 1432q45 0 71 -19.5t36 -42.5q12 -27 14 -59v-865q8 -133 76 -235q29 -45 73 -87t109.5 -75t153.5 -53.5t203 -20.5q94 0 165.5 20.5t126 53.5t90 75t60.5 87q55 102 64 235v877q2 31 20 53q16 20 48 38t93 18h-356q59 0 91 -17.5t48 -38.5q18 -23 21 -53v-877 q-6 -123 -60 -219q-23 -41 -56.5 -81t-82.5 -70.5t-116.5 -49t-155.5 -18.5q-61 0 -108.5 18.5t-82.5 49t-59.5 70.5t-38.5 81q-37 96 -41 219v865q0 33 14 59q10 23 36 42.5t73 19.5h-529zM515 1796.5q1 38.5 30 65.5q23 25 46 28.5t42.5 -2.5t32 -16t14.5 -10 q6 -6 22.5 -36t39 -73t48 -91t48.5 -91l-297 160q-27 27 -26 65.5z" />
<glyph unicode="&#xda;" horiz-adv-x="1484" d="M61 1432q45 0 71 -19.5t36 -42.5q12 -27 14 -59v-865q8 -133 76 -235q29 -45 73 -87t109.5 -75t153.5 -53.5t203 -20.5q94 0 165.5 20.5t126 53.5t90 75t60.5 87q55 102 64 235v877q2 31 20 53q16 20 48 38t93 18h-356q59 0 91 -17.5t48 -38.5q18 -23 21 -53v-877 q-6 -123 -60 -219q-23 -41 -56.5 -81t-82.5 -70.5t-116.5 -49t-155.5 -18.5q-61 0 -108.5 18.5t-82.5 49t-59.5 70.5t-38.5 81q-37 96 -41 219v865q0 33 14 59q10 23 36 42.5t73 19.5h-529zM750 1567l161 297q27 27 66 26.5t67 -26.5q23 -27 26 -50.5t-3 -41.5 q-8 -23 -23 -41q-6 -6 -36.5 -23.5t-73.5 -41.5t-92 -50.5t-92 -48.5z" />
<glyph unicode="&#xdc;" horiz-adv-x="1462" d="M61 1432q45 0 71 -19.5t36 -42.5q12 -27 14 -59v-865q8 -133 76 -235q29 -45 73 -87t109.5 -75t153.5 -53.5t203 -20.5q94 0 165.5 20.5t126 53.5t90 75t60.5 87q55 102 64 235v877q2 31 20 53q16 20 48 38t93 18h-356q59 0 91 -17.5t48 -38.5q18 -23 21 -53v-877 q-6 -123 -60 -219q-23 -41 -56.5 -81t-82.5 -70.5t-116.5 -49t-155.5 -18.5q-61 0 -108.5 18.5t-82.5 49t-59.5 70.5t-38.5 81q-37 96 -41 219v865q0 33 14 59q10 23 36 42.5t73 19.5h-529zM618 1663q0 35 30 64.5t69 29.5q37 0 64.5 -29.5t27.5 -64.5q0 -41 -27.5 -67.5 t-64.5 -26.5q-39 0 -69 26.5t-30 67.5zM901 1663q0 35 27.5 64.5t68.5 29.5t67 -29.5t26 -64.5q0 -41 -26 -67.5t-67 -26.5t-68.5 26.5t-27.5 67.5z" />
<glyph unicode="&#xdd;" horiz-adv-x="1449" d="M20 1432q25 0 50.5 -19.5t48.5 -42.5q25 -27 51 -61l399 -559v-619q-4 -37 -16 -65q-12 -25 -35.5 -45.5t-71.5 -20.5h527q-47 0 -71.5 20.5t-35.5 45.5q-12 29 -14 65v617l381 550q25 37 55 66q27 25 62.5 46.5t79.5 21.5h-300q59 0 77 -21.5t14 -46.5q-4 -29 -29 -66 l-361 -520l-342 531q-18 35 -20 61q-2 23 12.5 42.5t63.5 19.5h-525zM786 1569l162 297q27 27 66 26.5t67 -26.5q23 -27 26 -50.5t-3 -41.5q-8 -23 -23 -41q-6 -6 -36.5 -23.5t-73.5 -41t-92.5 -50.5t-92.5 -49z" />
<glyph unicode="&#xde;" horiz-adv-x="1241" d="M41 0q45 0 70.5 19.5t35.5 43.5q12 29 15 66v1171q-2 37 -15 66q-10 25 -35.5 45.5t-70.5 20.5h520q-45 0 -69.5 -20.5t-34.5 -45.5q-12 -29 -15 -66v-47h285q119 -6 215 -53q41 -20 80 -50t69.5 -75t49 -104.5t18.5 -139.5t-18.5 -139t-49 -103t-69.5 -74t-80 -50 q-96 -47 -215 -53h-285v-283q2 -37 15 -66q10 -25 34.5 -44t69.5 -19h-520zM442 442h287q49 6 86 50q33 37 59.5 115.5t26.5 223.5t-26.5 223.5t-59.5 114.5q-37 43 -86 50h-287v-777z" />
<glyph unicode="&#xe0;" d="M61 289q0 -66 16.5 -113t44.5 -82t61.5 -57.5t70.5 -34.5q84 -31 195 -27q49 0 86.5 20.5t63.5 47.5t40 52.5t18 35.5q16 -59 54.5 -91t76.5 -46q45 -18 97 -19q68 4 121 33q45 25 82.5 78t37.5 152q0 -61 -25.5 -106.5t-57 -58t-57 16.5t-25.5 115v557q0 16 -1.5 45 t-12.5 62.5t-37.5 68.5t-79 62.5t-133.5 46t-199 18.5q-61 0 -126 -19.5t-117 -54.5t-86 -81t-34 -101q0 -66 46 -111t108 -45q68 4 111.5 47t43.5 109q0 61 -45 108.5t-110 47.5q-41 0 -35 9t34.5 19.5t68.5 19.5t71 9q84 0 129 -32t64.5 -75t22.5 -86t3 -67v-29 q-2 -33 -24 -55q-18 -20 -58.5 -36.5t-115.5 -16.5q-111 0 -195 -35q-37 -14 -70.5 -39t-61.5 -60.5t-44.5 -86t-16.5 -115.5zM332.5 1405q1.5 39 29.5 65q23 25 46.5 29t43 -2t32 -16.5t14.5 -10.5q6 -6 22.5 -35.5t39 -72.5t48 -91t47.5 -91l-297 159q-27 27 -25.5 66z M371 332q0 84 19.5 133t48 76.5t63.5 41t65.5 27t53 34t28.5 61.5l-2 -533q-2 -23 -13 -50.5t-30.5 -52t-43 -42t-50.5 -17.5q-39 4 -70 41q-27 31 -48 94.5t-21 186.5z" />
<glyph unicode="&#xe1;" d="M61 289q0 -66 16.5 -113t44.5 -82t61.5 -57.5t70.5 -34.5q84 -31 195 -27q49 0 86.5 20.5t63.5 47.5t40 52.5t18 35.5q16 -59 54.5 -91t76.5 -46q45 -18 97 -19q68 4 121 33q45 25 82.5 78t37.5 152q0 -61 -25.5 -106.5t-57 -58t-57 16.5t-25.5 115v557q0 16 -1.5 45 t-12.5 62.5t-37.5 68.5t-79 62.5t-133.5 46t-199 18.5q-61 0 -126 -19.5t-117 -54.5t-86 -81t-34 -101q0 -66 46 -111t108 -45q68 4 111.5 47t43.5 109q0 61 -45 108.5t-110 47.5q-41 0 -35 9t34.5 19.5t68.5 19.5t71 9q84 0 129 -32t64.5 -75t22.5 -86t3 -67v-29 q-2 -33 -24 -55q-18 -20 -58.5 -36.5t-115.5 -16.5q-111 0 -195 -35q-37 -14 -70.5 -39t-61.5 -60.5t-44.5 -86t-16.5 -115.5zM371 332q0 84 19.5 133t48 76.5t63.5 41t65.5 27t53 34t28.5 61.5l-2 -533q-2 -23 -13 -50.5t-30.5 -52t-43 -42t-50.5 -17.5q-39 4 -70 41 q-27 31 -48 94.5t-21 186.5zM475 1176l162 297q27 27 65.5 26.5t67.5 -26.5q23 -27 26 -50.5t-3 -42.5q-8 -23 -23 -41q-6 -6 -37 -23.5t-74 -41t-92 -50t-92 -48.5z" />
<glyph unicode="&#xe2;" d="M61 289q0 -66 16.5 -113t44.5 -82t61.5 -57.5t70.5 -34.5q84 -31 195 -27q49 0 86.5 20.5t63.5 47.5t40 52.5t18 35.5q16 -59 54.5 -91t76.5 -46q45 -18 97 -19q68 4 121 33q45 25 82.5 78t37.5 152q0 -61 -25.5 -106.5t-57 -58t-57 16.5t-25.5 115v557q0 16 -1.5 45 t-12.5 62.5t-37.5 68.5t-79 62.5t-133.5 46t-199 18.5q-61 0 -126 -19.5t-117 -54.5t-86 -81t-34 -101q0 -66 46 -111t108 -45q68 4 111.5 47t43.5 109q0 61 -45 108.5t-110 47.5q-41 0 -35 9t34.5 19.5t68.5 19.5t71 9q84 0 129 -32t64.5 -75t22.5 -86t3 -67v-29 q-2 -33 -24 -55q-18 -20 -58.5 -36.5t-115.5 -16.5q-111 0 -195 -35q-37 -14 -70.5 -39t-61.5 -60.5t-44.5 -86t-16.5 -115.5zM344 1180l231 250l230 -250l-230 116zM371 332q0 84 19.5 133t48 76.5t63.5 41t65.5 27t53 34t28.5 61.5l-2 -533q-2 -23 -13 -50.5t-30.5 -52 t-43 -42t-50.5 -17.5q-39 4 -70 41q-27 31 -48 94.5t-21 186.5z" />
<glyph unicode="&#xe3;" d="M61 289q0 -66 16.5 -113t44.5 -82t61.5 -57.5t70.5 -34.5q84 -31 195 -27q49 0 86.5 20.5t63.5 47.5t40 52.5t18 35.5q16 -59 54.5 -91t76.5 -46q45 -18 97 -19q68 4 121 33q45 25 82.5 78t37.5 152q0 -61 -25.5 -106.5t-57 -58t-57 16.5t-25.5 115v557q0 16 -1.5 45 t-12.5 62.5t-37.5 68.5t-79 62.5t-133.5 46t-199 18.5q-61 0 -126 -19.5t-117 -54.5t-86 -81t-34 -101q0 -66 46 -111t108 -45q68 4 111.5 47t43.5 109q0 61 -45 108.5t-110 47.5q-41 0 -35 9t34.5 19.5t68.5 19.5t71 9q84 0 129 -32t64.5 -75t22.5 -86t3 -67v-29 q-2 -33 -24 -55q-18 -20 -58.5 -36.5t-115.5 -16.5q-111 0 -195 -35q-37 -14 -70.5 -39t-61.5 -60.5t-44.5 -86t-16.5 -115.5zM287 1192q14 47 37 84q18 31 46.5 57.5t69.5 26.5q39 0 94.5 -15.5t107.5 -26.5t94 -8t57 42h10q-6 -49 -27 -86q-16 -33 -51 -58.5t-94 -25.5 q-55 0 -95 14t-77 25.5t-75 8.5t-87 -38h-10zM371 332q0 84 19.5 133t48 76.5t63.5 41t65.5 27t53 34t28.5 61.5l-2 -533q-2 -23 -13 -50.5t-30.5 -52t-43 -42t-50.5 -17.5q-39 4 -70 41q-27 31 -48 94.5t-21 186.5z" />
<glyph unicode="&#xe4;" d="M61 289q0 -66 16.5 -113t44.5 -82t61.5 -57.5t70.5 -34.5q84 -31 195 -27q49 0 86.5 20.5t63.5 47.5t40 52.5t18 35.5q16 -59 54.5 -91t76.5 -46q45 -18 97 -19q68 4 121 33q45 25 82.5 78t37.5 152q0 -61 -25.5 -106.5t-57 -58t-57 16.5t-25.5 115v557q0 16 -1.5 45 t-12.5 62.5t-37.5 68.5t-79 62.5t-133.5 46t-199 18.5q-61 0 -126 -19.5t-117 -54.5t-86 -81t-34 -101q0 -66 46 -111t108 -45q68 4 111.5 47t43.5 109q0 61 -45 108.5t-110 47.5q-41 0 -35 9t34.5 19.5t68.5 19.5t71 9q84 0 129 -32t64.5 -75t22.5 -86t3 -67v-29 q-2 -33 -24 -55q-18 -20 -58.5 -36.5t-115.5 -16.5q-111 0 -195 -35q-37 -14 -70.5 -39t-61.5 -60.5t-44.5 -86t-16.5 -115.5zM334 1276q0 35 29.5 64.5t68.5 29.5q37 0 64.5 -29.5t27.5 -64.5q0 -41 -27.5 -67.5t-64.5 -26.5q-39 0 -68.5 26.5t-29.5 67.5zM371 332 q0 84 19.5 133t48 76.5t63.5 41t65.5 27t53 34t28.5 61.5l-2 -533q-2 -23 -13 -50.5t-30.5 -52t-43 -42t-50.5 -17.5q-39 4 -70 41q-27 31 -48 94.5t-21 186.5zM616 1276q0 35 28 64.5t69 29.5t66.5 -29.5t25.5 -64.5q0 -41 -25.5 -67.5t-66.5 -26.5t-69 26.5t-28 67.5z" />
<glyph unicode="&#xe5;" d="M61 289q0 66 16.5 116t44.5 85.5t61.5 60t70.5 39.5q84 35 195 35q76 0 115.5 16t58.5 37q23 23 24 55v29q0 25 -3 67.5t-22.5 85.5t-64.5 75t-129 32q-31 0 -71 -9t-68.5 -19.5t-34.5 -19.5t35 -9q66 0 110.5 -47.5t44.5 -108.5q0 -66 -44 -109t-111 -47 q-61 0 -107.5 45t-46.5 111q0 55 34 101t86 81t116.5 54.5t126.5 19.5q119 0 199.5 -18.5t133 -46t79 -62.5t37.5 -68.5t12.5 -62.5t1.5 -45v-557q0 -86 25.5 -115t57 -16.5t57 57.5t25.5 107q0 -98 -37.5 -151.5t-82.5 -78.5q-53 -29 -121 -33q-51 0 -97 19 q-39 14 -76.5 46t-54.5 91q-4 -10 -18 -35.5t-40 -52.5t-63.5 -47.5t-86.5 -20.5q-111 -4 -195 27q-37 12 -70.5 34.5t-61.5 57.5t-44.5 82t-16.5 113zM371 332q0 -123 21.5 -186.5t47.5 -94.5q31 -37 70 -41q27 0 50.5 17.5t43 42t30.5 52.5t13 50l2 533 q-6 -41 -28.5 -61.5t-53 -34t-65.5 -27t-63.5 -41t-48 -76.5t-19.5 -133zM414 1346q0 66 47 112.5t117 46.5q66 0 112.5 -47t46.5 -112q0 -66 -47 -115t-112 -49q-35 0 -65 13t-52.5 35.5t-34.5 52.5t-12 63zM504 1346q0 -63 15.5 -108.5t58.5 -45.5q41 0 55 45t14 109 q0 63 -14.5 106t-54.5 43q-43 0 -58.5 -43t-15.5 -106z" />
<glyph unicode="&#xe6;" horiz-adv-x="1703" d="M61 293q0 68 16.5 118t43 87t60.5 60.5t71 39.5q84 37 192 37q78 0 118 15.5t59 35.5q23 23 24 53v25q0 25 -6 69t-30.5 88t-75 76.5t-136.5 32.5q-27 0 -61.5 -10t-57 -21.5t-24.5 -21.5t39 -10q31 0 57.5 -13.5t48 -35t33.5 -50t12 -59.5q0 -59 -46 -103t-105 -44 q-66 0 -110 43t-44 102q0 55 33 103t84 82t114.5 53.5t125.5 19.5q141 0 227 -24.5t133 -63.5q53 41 119.5 62.5t140.5 21.5q92 0 162 -22.5t123 -59.5t90 -83t61 -95q57 -113 70 -258h-2h-270h-400v-34t3 -81t12.5 -107.5t29 -111.5t49 -96t76.5 -60q86 -31 158 -11.5 t125 62.5t86 97.5t41 91.5l-5 -23q-5 -22 -18.5 -56t-41 -73t-73.5 -72.5t-114 -56t-162 -22.5q-121 0 -224.5 51t-168.5 170q0 -2 -21.5 -37t-58.5 -76t-87 -74.5t-107 -33.5h-5q-6 0 -35.5 -2t-72.5 4t-91 21.5t-89 49t-68 90t-27 140.5zM369 338q0 -119 21.5 -183.5 t47.5 -93.5q31 -35 72 -38q25 0 47.5 16t41.5 40.5t31.5 52.5t14.5 50v4l4 435q0 16 -14 22t-27 -2q-31 -23 -71.5 -36t-78.5 -38.5t-63.5 -77t-25.5 -151.5zM954 584h396q0 55 -3.5 131t-21.5 145.5t-59 118.5t-115 49t-114 -49t-58 -118.5t-21.5 -145.5t-3.5 -131z" />
<glyph unicode="&#xe7;" horiz-adv-x="1062" d="M61 520q8 152 72 273q27 51 68 100t100 88t140 62.5t188 23.5q61 0 127.5 -20.5t121 -56.5t89 -85t34.5 -106q0 -66 -47 -111t-112 -45q-68 0 -114 45t-46 111t46 112.5t114 46.5q41 0 39 11.5t-27 26t-62.5 25.5t-66.5 11q-66 0 -117 -22.5t-88 -58.5t-62.5 -82 t-41.5 -93q-39 -113 -43 -256q0 -29 4 -99.5t20.5 -148t52 -145.5t97.5 -90q86 -31 157.5 -11.5t126 62.5t88 98.5t42.5 94.5q0 -8 -10.5 -49.5t-42 -90.5t-93 -94t-164.5 -63l-86 -107q94 2 157.5 -12.5t99.5 -38t49.5 -50t9.5 -50.5q-8 -41 -51.5 -74t-105.5 -46.5 t-138 -1t-152 65.5l2 6q37 -25 87 -41t95.5 -19t77 13.5t33.5 59.5q2 33 -41 50t-94 25q-61 8 -137 9l176 207q-20 -4 -42 -4.5t-44 -0.5q-94 0 -181 28t-155 92.5t-108 168t-42 256.5z" />
<glyph unicode="&#xe8;" horiz-adv-x="1118" d="M61 532q0 -156 41 -262t107.5 -171.5t154 -94.5t181.5 -29q96 0 163.5 22.5t113.5 57.5t74 75t41 75t19 59l5 23q-8 -41 -41 -95.5t-87.5 -99.5t-126 -64.5t-157.5 11.5q-47 16 -78 60t-50.5 98.5t-28.5 113t-12 108.5t-3 81.5v34.5h397h275h8q-14 147 -72 264 q-25 49 -62.5 97t-91 86t-125 60.5t-163.5 22.5q-104 0 -193.5 -41t-153 -112.5t-99.5 -169t-36 -210.5zM332.5 1405q1.5 39 29.5 65q23 25 46.5 29t43 -2t32 -16.5t14.5 -10.5q6 -6 22.5 -35.5t39 -72.5t48 -91t47.5 -91l-297 159q-27 27 -25.5 66zM377 578q0 55 3 132.5 t21.5 148.5t59.5 120t114 49q74 0 115 -49t59.5 -120t21.5 -148.5t3 -132.5h-397z" />
<glyph unicode="&#xe9;" horiz-adv-x="1118" d="M61 532q0 -156 41 -262t107.5 -171.5t154 -94.5t181.5 -29q96 0 163.5 22.5t113.5 57.5t74 75t41 75t19 59l5 23q-8 -41 -41 -95.5t-87.5 -99.5t-126 -64.5t-157.5 11.5q-47 16 -78 60t-50.5 98.5t-28.5 113t-12 108.5t-3 81.5v34.5h397h275h8q-14 147 -72 264 q-25 49 -62.5 97t-91 86t-125 60.5t-163.5 22.5q-104 0 -193.5 -41t-153 -112.5t-99.5 -169t-36 -210.5zM377 578q0 55 3 132.5t21.5 148.5t59.5 120t114 49q74 0 115 -49t59.5 -120t21.5 -148.5t3 -132.5h-397zM496 1176l161 297q27 27 66 26.5t68 -26.5q23 -27 25.5 -50.5 t-3.5 -42.5q-8 -23 -22 -41q-6 -6 -37 -23.5t-74 -41t-92 -50t-92 -48.5z" />
<glyph unicode="&#xea;" horiz-adv-x="1118" d="M61 532q0 -156 41 -262t107.5 -171.5t154 -94.5t181.5 -29q96 0 163.5 22.5t113.5 57.5t74 75t41 75t19 59l5 23q-8 -41 -41 -95.5t-87.5 -99.5t-126 -64.5t-157.5 11.5q-47 16 -78 60t-50.5 98.5t-28.5 113t-12 108.5t-3 81.5v34.5h397h275h8q-14 147 -72 264 q-25 49 -62.5 97t-91 86t-125 60.5t-163.5 22.5q-104 0 -193.5 -41t-153 -112.5t-99.5 -169t-36 -210.5zM328 1180l231 250l229 -250l-229 116zM377 578q0 55 3 132.5t21.5 148.5t59.5 120t114 49q74 0 115 -49t59.5 -120t21.5 -148.5t3 -132.5h-397z" />
<glyph unicode="&#xeb;" horiz-adv-x="1118" d="M61 532q0 -156 41 -262t107.5 -171.5t154 -94.5t181.5 -29q96 0 163.5 22.5t113.5 57.5t74 75t41 75t19 59l5 23q-8 -41 -41 -95.5t-87.5 -99.5t-126 -64.5t-157.5 11.5q-47 16 -78 60t-50.5 98.5t-28.5 113t-12 108.5t-3 81.5v34.5h397h275h8q-14 147 -72 264 q-25 49 -62.5 97t-91 86t-125 60.5t-163.5 22.5q-104 0 -193.5 -41t-153 -112.5t-99.5 -169t-36 -210.5zM281 1274q0 35 29.5 64.5t68.5 29.5q37 0 64.5 -29.5t27.5 -64.5q0 -41 -27.5 -67.5t-64.5 -26.5q-39 0 -68.5 26.5t-29.5 67.5zM377 578q0 55 3 132.5t21.5 148.5 t59.5 120t114 49q74 0 115 -49t59.5 -120t21.5 -148.5t3 -132.5h-397zM563 1274q0 35 27.5 64.5t68.5 29.5t67 -29.5t26 -64.5q0 -41 -26 -67.5t-67 -26.5t-68.5 26.5t-27.5 67.5z" />
<glyph unicode="&#xec;" horiz-adv-x="645" d="M21.5 1405q1.5 39 29.5 65q23 25 46.5 29t43 -2t31.5 -16.5t14 -10.5q6 -6 22.5 -35.5t39 -72.5t48.5 -91t48 -91l-297 159q-27 27 -25.5 66zM43 0h582q-51 0 -78 24.5t-39 53.5q-14 35 -16 78v888h-449q51 0 79 -21.5t40 -47.5q14 -31 16 -70v-749q-2 -43 -16 -78 q-12 -29 -40 -53.5t-79 -24.5z" />
<glyph unicode="&#xed;" horiz-adv-x="622" d="M20 0h582q-51 0 -77.5 24.5t-39.5 53.5q-14 35 -16 78v888h-449q51 0 79 -21.5t40 -47.5q14 -31 17 -70v-749q-2 -43 -17 -78q-12 -29 -40 -53.5t-79 -24.5zM233 1176l162 297q27 27 66 26.5t67 -26.5q23 -27 26 -50.5t-3 -42.5q-8 -23 -23 -41q-6 -6 -36.5 -23.5 t-73.5 -41t-92.5 -50t-92.5 -48.5z" />
<glyph unicode="&#xee;" horiz-adv-x="622" d="M20 0h582q-51 0 -77.5 24.5t-39.5 53.5q-14 35 -16 78v888h-449q51 0 79 -21.5t40 -47.5q14 -31 17 -70v-749q-2 -43 -17 -78q-12 -29 -40 -53.5t-79 -24.5zM80 1180l231 250l230 -250l-230 116z" />
<glyph unicode="&#xef;" horiz-adv-x="622" d="M20 0h582q-51 0 -77.5 24.5t-39.5 53.5q-14 35 -16 78v888h-449q51 0 79 -21.5t40 -47.5q14 -31 17 -70v-749q-2 -43 -17 -78q-12 -29 -40 -53.5t-79 -24.5zM59 1274q0 35 30 64.5t69 29.5q37 0 64.5 -29.5t27.5 -64.5q0 -41 -27.5 -67.5t-64.5 -26.5q-39 0 -69 26.5 t-30 67.5zM342 1274q0 35 27.5 64.5t68.5 29.5t66.5 -29.5t25.5 -64.5q0 -41 -25.5 -67.5t-66.5 -26.5t-68.5 26.5t-27.5 67.5z" />
<glyph unicode="&#xf0;" horiz-adv-x="1705" />
<glyph unicode="&#xf1;" horiz-adv-x="1245" d="M20 0h582q-51 0 -78.5 21.5t-40.5 50.5q-14 33 -16 73v781q78 53 139 61q27 4 51.5 -1t45 -25.5t33 -59.5t12.5 -100v-598q0 -86 36.5 -131t81.5 -68q53 -25 119 -29q66 4 119 33q45 25 83 77t38 151q0 -61 -25.5 -106.5t-57.5 -58t-57.5 16.5t-25.5 115v598 q0 98 -48 152.5t-108 78.5q-68 29 -155 33q-53 -2 -107 -14q-45 -10 -92 -34t-82 -65v92h-447q51 0 79 -22.5t40 -48.5q14 -33 17 -72v-756q-2 -41 -17 -73q-12 -29 -39.5 -50.5t-79.5 -21.5zM330 1192q14 47 37 84q18 31 46.5 57.5t69.5 26.5q39 0 94.5 -15.5t107.5 -26.5 t94 -8t57 42h10q-6 -49 -27 -86q-16 -33 -51 -58.5t-94 -25.5q-55 0 -95 14t-77 25.5t-75 8.5t-87 -38h-10z" />
<glyph unicode="&#xf2;" horiz-adv-x="1247" d="M61 520q0 -113 44.5 -212t121 -173t178 -117t218.5 -43t219 43t179 117t121 173.5t44 211.5q0 113 -44 212t-121 173t-179 117t-219 43t-218.5 -43t-178 -117t-121 -173t-44.5 -212zM298 1405q1 39 30 65q23 25 46 29t42.5 -2t32 -16.5t14.5 -10.5q6 -6 22.5 -35.5 t39 -72.5t48 -91t48.5 -91l-297 159q-27 27 -26 66zM350 520q0 106 16.5 196.5t50.5 157t85 104.5t121 38q55 0 104 -38t87 -104.5t60.5 -156.5t22.5 -197q0 -106 -22.5 -196.5t-60.5 -157t-87 -104t-104 -37.5q-70 0 -121 37.5t-85 104t-50.5 157t-16.5 196.5z" />
<glyph unicode="&#xf3;" horiz-adv-x="1247" d="M61 520q0 -113 44.5 -212t121 -173t178 -117t218.5 -43t219 43t179 117t121 173.5t44 211.5q0 113 -44 212t-121 173t-179 117t-219 43t-218.5 -43t-178 -117t-121 -173t-44.5 -212zM350 520q0 106 16.5 196.5t50.5 157t85 104.5t121 38q55 0 104 -38t87 -104.5 t60.5 -156.5t22.5 -197q0 -106 -22.5 -196.5t-60.5 -157t-87 -104t-104 -37.5q-70 0 -121 37.5t-85 104t-50.5 157t-16.5 196.5zM621 1176l161 297q27 27 66 26.5t67 -26.5q23 -27 26 -50.5t-3 -42.5q-8 -23 -23 -41q-6 -6 -36.5 -23.5t-73.5 -41t-92 -50t-92 -48.5z" />
<glyph unicode="&#xf4;" horiz-adv-x="1247" d="M61 520q0 -113 44.5 -212t121 -173t178 -117t218.5 -43t219 43t179 117t121 173.5t44 211.5q0 113 -45 212t-122 173t-179 117t-217 43q-117 0 -218.5 -43t-178 -117t-121 -173t-44.5 -212zM350 520q0 106 16.5 196.5t50.5 157t85 104.5t121 38q55 0 104 -38t87 -104.5 t60.5 -156.5t22.5 -197q0 -106 -22.5 -196.5t-61.5 -157t-88 -104t-102 -37.5q-70 0 -121 37.5t-85 104t-50.5 157t-16.5 196.5zM391 1182l232 250l229 -250l-229 116z" />
<glyph unicode="&#xf5;" horiz-adv-x="1247" d="M61 520q0 -113 44.5 -212t121 -173t178 -117t218.5 -43t219 43t179 117t121 173.5t44 211.5q0 113 -43 212t-119 173t-179 117t-222 43q-117 0 -218.5 -43t-178 -117t-121 -173t-44.5 -212zM350 520q0 106 16.5 196.5t50.5 157t85 104.5t121 38q55 0 104 -38t87 -104.5 t60.5 -156.5t22.5 -197q0 -106 -22.5 -196.5t-61.5 -157t-88 -104t-102 -37.5q-70 0 -121 37.5t-85 104t-50.5 157t-16.5 196.5zM367 1192q14 47 36 84q18 31 47 57.5t70 26.5q39 0 94.5 -15.5t107.5 -26.5t94 -8t56 42h11q-6 -49 -27 -86q-16 -33 -51 -58.5t-94 -25.5 q-55 0 -95.5 14t-77 25.5t-74.5 8.5t-87 -38h-10z" />
<glyph unicode="&#xf6;" horiz-adv-x="1247" d="M61 520q0 -113 44.5 -212t121 -173t178 -117t218.5 -43t219 43t179 117t121 173.5t44 211.5q0 113 -43 212t-119 173t-179 117t-222 43q-117 0 -218.5 -43t-178 -117t-121 -173t-44.5 -212zM350 520q0 106 16.5 196.5t50.5 157t85 104.5t121 38q55 0 104 -38t87 -104.5 t60.5 -156.5t22.5 -197q0 -106 -22.5 -196.5t-61.5 -157t-88 -104t-102 -37.5q-70 0 -121 37.5t-85 104t-50.5 157t-16.5 196.5zM389 1274q0 35 28.5 64.5t69.5 29.5q37 0 65 -29.5t28 -64.5q0 -41 -28 -67.5t-65 -26.5q-39 0 -68.5 26.5t-29.5 67.5zM672 1274 q0 35 27.5 64.5t68.5 29.5t66.5 -29.5t25.5 -64.5q0 -41 -25.5 -67.5t-66.5 -26.5t-68.5 26.5t-27.5 67.5z" />
<glyph unicode="&#xf8;" horiz-adv-x="1296" d="M88 520q0 113 44 212t120 173t177 117t216 43q117 0 217.5 -42t177.5 -114l148 142l10 -7l-151 -145q78 -74 119.5 -171t41.5 -208q0 -113 -44 -212t-119.5 -173t-179 -117t-220.5 -43q-113 0 -213 42t-178 116l-145 -139l-11 6l148 141q-74 74 -116 171.5t-42 207.5z M377 520q0 -63 5 -120.5t19 -106.5l484 469q-37 115 -100.5 184.5t-139.5 69.5q-70 0 -120 -38t-82.5 -104.5t-49 -158t-16.5 -195.5zM401 279q29 -117 89.5 -185.5t154.5 -68.5q55 0 104.5 37.5t87 104t60.5 158t23 195.5q0 129 -31 228z" />
<glyph unicode="&#xf9;" horiz-adv-x="1224" d="M20 1044q51 0 78 -17t39.5 -40.5t14.5 -47.5t4 -34v-667q0 -98 47 -151.5t106 -78.5q68 -29 154 -33q51 2 104 15q43 10 91.5 32.5t82.5 65.5v-88h443q-51 0 -78 22.5t-39 51.5q-14 33 -16 73v897h-443q49 0 76 -17t39 -40.5t15 -47.5t3 -34v-790q-78 -53 -139 -62 q-27 -4 -51.5 1t-44 24.5t-31.5 58.5t-12 101v806h-443zM199.5 1405q1.5 39 29.5 65q23 25 46.5 29t43 -2t31.5 -16.5t15 -10.5q6 -6 22 -35.5t39 -72.5t48.5 -91t47.5 -91l-297 159q-27 27 -25.5 66z" />
<glyph unicode="&#xfa;" horiz-adv-x="1224" d="M20 1044q51 0 78 -17t39.5 -40.5t14.5 -47.5t4 -34v-667q0 -98 47 -151.5t106 -78.5q68 -29 154 -33q51 2 104 15q43 10 91.5 32.5t82.5 65.5v-88h443q-51 0 -78 22.5t-39 51.5q-14 33 -16 73v897h-443q49 0 76 -17t39 -40.5t15 -47.5t3 -34v-790q-78 -53 -139 -62 q-27 -4 -51.5 1t-44 24.5t-31.5 58.5t-12 101v806h-443zM526 1176l162 297q27 27 66 26.5t67 -26.5q23 -27 26 -50.5t-3 -42.5q-8 -23 -23 -41q-6 -6 -36.5 -23.5t-73.5 -41t-92.5 -50t-92.5 -48.5z" />
<glyph unicode="&#xfb;" horiz-adv-x="1224" d="M20 1044q51 0 78 -17t39.5 -40.5t14.5 -47.5t4 -34v-667q0 -98 47 -151.5t106 -78.5q68 -29 154 -33q51 2 104 15q43 10 91.5 32.5t82.5 65.5v-88h443q-51 0 -78 22.5t-39 51.5q-14 33 -16 73v897h-443q49 0 76 -17t39 -40.5t15 -47.5t3 -34v-790q-78 -53 -139 -62 q-27 -4 -51.5 1t-44 24.5t-31.5 58.5t-12 101v806h-443zM371 1182l231 250l229 -250l-229 116z" />
<glyph unicode="&#xfc;" horiz-adv-x="1224" d="M20 1044q51 0 78 -17t39.5 -40.5t14.5 -47.5t4 -34v-667q0 -98 47 -151.5t106 -78.5q68 -29 154 -33q51 2 104 15q43 10 91.5 32.5t82.5 65.5v-88h443q-51 0 -78 22.5t-39 51.5q-14 33 -16 73v897h-443q49 0 76 -17t39 -40.5t15 -47.5t3 -34v-790q-78 -53 -139 -62 q-27 -4 -51.5 1t-44 24.5t-31.5 58.5t-12 101v806h-443zM358 1274q0 35 29 64.5t70 29.5q37 0 64.5 -29.5t27.5 -64.5q0 -41 -27.5 -67.5t-64.5 -26.5q-39 0 -69 26.5t-30 67.5zM641 1274q0 35 27.5 64.5t68.5 29.5t66.5 -29.5t25.5 -64.5q0 -41 -25.5 -67.5t-66.5 -26.5 t-68.5 26.5t-27.5 67.5z" />
<glyph unicode="&#xfd;" horiz-adv-x="1269" d="M20 1044q41 0 71 -21.5t50 -45.5q23 -29 39 -66l416 -911h166l-137 -428q4 -8 7 -23.5t3 -23.5q0 -20 -6 -35l454 1399q4 8 16.5 33.5t34 53.5t50 48t65.5 20h-350q72 0 103.5 -24.5t41.5 -52.5q10 -35 3 -78l-216 -670l-313 688q-14 37 -10 68q4 27 21.5 48t70.5 21 h-580zM377 -471q0 53 38 90t91 37t91 -37t38 -90t-38 -91t-91 -38t-91 38t-38 91zM727 1176l162 297q27 27 65.5 26.5t67.5 -26.5q23 -27 26 -50.5t-4 -42.5q-8 -23 -22 -41q-6 -6 -37 -23.5t-74 -41t-92 -50t-92 -48.5z" />
<glyph unicode="&#xfe;" horiz-adv-x="1251" d="M82 -438q49 0 76.5 21.5t40.5 49.5q14 31 16 72v1714q-2 39 -16 72q-12 27 -40 49.5t-77 22.5h580q-53 0 -81 -22.5t-42 -49.5q-16 -33 -19 -72v-375h2v-159v-49q6 20 18.5 59t40 77t77 65.5t128.5 27.5q82 0 144.5 -23.5t107.5 -62.5t76 -87t49 -99q45 -121 45 -273 q-2 -154 -51 -272q-20 -51 -54 -100.5t-83 -87t-116.5 -61.5t-158.5 -24q-57 0 -97 17.5t-65.5 43t-40 56.5t-20.5 55l-2 -442q2 -41 19 -72q14 -29 41.5 -50t81.5 -21h-580zM522 217q29 -117 79 -163t112 -46q43 0 82 24.5t67.5 83t45 158t16.5 246.5q0 145 -16.5 241.5 t-45 155t-67.5 83t-82 24.5q-61 0 -111.5 -70.5t-79.5 -187.5v-549z" />
<glyph unicode="&#xff;" horiz-adv-x="1269" d="M20 1042q41 0 71 -21.5t50 -45.5q23 -29 39 -66l416 -911h166l-137 -428q4 -8 7 -23.5t3 -23.5q0 -20 -6 -35l454 1399q4 8 16.5 33.5t34 53t50 48t65.5 20.5h-350q72 0 103.5 -24.5t41.5 -52.5q10 -35 3 -78l-216 -670l-313 688q-14 37 -10 68q4 27 21.5 48t70.5 21 h-580zM377 -473q0 53 38 90t91 37t91 -37t38 -90t-38 -91t-91 -38t-91 38t-38 91zM399 1274q0 35 30 64.5t69 29.5q37 0 64.5 -29.5t27.5 -64.5q0 -41 -27.5 -67.5t-64.5 -26.5q-39 0 -69 26.5t-30 67.5zM682 1274q0 35 27.5 64.5t68.5 29.5t66.5 -29.5t25.5 -64.5 q0 -41 -25.5 -67.5t-66.5 -26.5t-68.5 26.5t-27.5 67.5z" />
<glyph unicode="&#x152;" horiz-adv-x="2234" d="M92 717q0 154 56.5 289t152.5 234t225 157.5t277 58.5q39 0 75.5 -8t73.5 -18l-2 2h1182v-310q-4 80 -39 144q-29 53 -93.5 98t-182.5 45h-304v-651h107q74 0 115 29.5t59 66.5q23 41 27 96v-209v-206q-4 53 -27 94q-20 35 -60 65.5t-116 30.5h-105v-690h287 q125 0 192.5 46t98.5 103q37 66 41 150v-334h-1182q-35 -8 -71.5 -16.5t-75.5 -8.5q-147 0 -276.5 58.5t-225.5 159t-152.5 235.5t-56.5 289zM377 717q0 -147 33.5 -276.5t91 -225.5t135.5 -151.5t166 -55.5q84 0 158.5 51.5t131 139.5t92.5 206.5t42 256.5v110 q-6 137 -42 257t-92.5 208t-131 138t-158.5 50q-88 0 -166 -55t-135.5 -151.5t-91 -225.5t-33.5 -276z" />
<glyph unicode="&#x153;" horiz-adv-x="2009" d="M92 518q0 113 44 213t120 174t177.5 117t217.5 43q119 0 222.5 -44t181.5 -122q66 76 154.5 121t197.5 45q92 0 162.5 -22.5t125 -60.5t91.5 -86t61 -97q57 -117 70 -267h-4h-273h-399v-33.5t3 -80.5t12.5 -108.5t28 -114t49 -97.5t77.5 -61q86 -31 158.5 -10.5t126 64.5 t86.5 98.5t43 93.5q-2 0 -6 -23.5t-18.5 -57.5t-42 -74t-73 -74t-113 -56.5t-161.5 -22.5q-106 0 -201.5 36t-165.5 118q-78 -72 -177 -113t-216 -41t-218 42t-177 116t-120 173.5t-44 211.5zM381 518q0 -104 15.5 -197.5t49 -162t83.5 -108.5t122 -40q53 0 102.5 40 t87.5 108.5t60.5 162t22.5 197.5t-22.5 197.5t-60.5 163t-87 110.5t-103 41q-72 0 -122 -41t-83.5 -110.5t-49 -162.5t-15.5 -198zM1241 573h399q0 55 -3 134t-21.5 151t-59 122t-116.5 50q-74 0 -115 -50t-59.5 -122t-21.5 -150.5t-3 -134.5z" />
<glyph unicode="&#x178;" horiz-adv-x="1449" d="M20 1432q25 0 50.5 -19.5t48.5 -42.5q25 -27 51 -61l399 -559v-619q-4 -37 -16 -65q-12 -25 -35.5 -45.5t-71.5 -20.5h527q-47 0 -71.5 20.5t-35.5 45.5q-12 29 -14 65v617l381 550q25 37 55 66q27 25 62.5 46.5t79.5 21.5h-300q59 0 77 -21.5t14 -46.5q-4 -29 -29 -66 l-361 -520l-342 531q-18 35 -20 61q-2 23 12.5 42.5t63.5 19.5h-525zM627 1663q0 35 29.5 64.5t68.5 29.5q37 0 64.5 -29.5t27.5 -64.5q0 -41 -27.5 -67.5t-64.5 -26.5q-39 0 -68.5 26.5t-29.5 67.5zM909 1663q0 35 28 64.5t69 29.5t66.5 -29.5t25.5 -64.5 q0 -41 -25.5 -67.5t-66.5 -26.5t-69 26.5t-28 67.5z" />
<glyph unicode="&#x2c6;" horiz-adv-x="542" d="M41 1180l231 250l230 -250l-230 116z" />
<glyph unicode="&#x2dc;" horiz-adv-x="679" d="M82 1192q14 47 37 84q18 31 47 57.5t70 26.5q39 0 94 -15.5t107 -26.5t94 -8t57 42h10q-6 -49 -27 -86q-16 -33 -51 -58.5t-94 -25.5q-55 0 -95 14t-77 25.5t-75 8.5t-87 -38h-10z" />
<glyph unicode="&#x2000;" horiz-adv-x="946" />
<glyph unicode="&#x2001;" horiz-adv-x="1892" />
<glyph unicode="&#x2002;" horiz-adv-x="946" />
<glyph unicode="&#x2003;" horiz-adv-x="1892" />
<glyph unicode="&#x2004;" horiz-adv-x="630" />
<glyph unicode="&#x2005;" horiz-adv-x="473" />
<glyph unicode="&#x2006;" horiz-adv-x="315" />
<glyph unicode="&#x2007;" horiz-adv-x="315" />
<glyph unicode="&#x2008;" horiz-adv-x="236" />
<glyph unicode="&#x2009;" horiz-adv-x="378" />
<glyph unicode="&#x200a;" horiz-adv-x="105" />
<glyph unicode="&#x2010;" horiz-adv-x="638" d="M123 500v94h393v-94h-393z" />
<glyph unicode="&#x2011;" horiz-adv-x="638" d="M123 500v94h393v-94h-393z" />
<glyph unicode="&#x2012;" horiz-adv-x="638" d="M123 500v94h393v-94h-393z" />
<glyph unicode="&#x2013;" horiz-adv-x="1687" d="M123 461v86h1442v-86h-1442z" />
<glyph unicode="&#x2014;" horiz-adv-x="2062" d="M123 459v88h1816v-88h-1816z" />
<glyph unicode="&#x2018;" horiz-adv-x="565" d="M92 1036q0 51 7 97.5t28 99.5q35 98 113.5 148.5t171.5 50.5v-17q-86 0 -160 -46t-109 -142q-10 -27 -17 -53.5t-11 -49.5q27 41 69.5 65.5t96.5 24.5q39 0 73.5 -14t61 -37.5t42 -56.5t15.5 -70t-15.5 -68.5t-42 -55t-61.5 -38t-73 -14.5q-80 0 -134.5 50t-54.5 126z " />
<glyph unicode="&#x2019;" horiz-adv-x="514" d="M41 1255q0 37 14.5 69t40 55.5t60 38t73.5 14.5q80 0 136.5 -50.5t56.5 -126.5q0 -49 -10.5 -97t-30.5 -99q-35 -98 -113 -148.5t-166 -50.5v17q84 0 158 46t111 142q8 27 14 53.5t10 48.5q-23 -41 -67.5 -65.5t-98.5 -24.5q-39 0 -73.5 14.5t-60 38t-40 56.5t-14.5 69z " />
<glyph unicode="&#x201a;" horiz-adv-x="565" d="M92 174q0 37 14.5 68.5t40 55.5t60.5 38t74 14q80 0 136 -50t56 -126q0 -49 -10 -97t-31 -100q-35 -98 -112.5 -148t-165.5 -50v16q84 0 157.5 46t110.5 143q8 27 14 53t10 49q-23 -41 -67.5 -65.5t-97.5 -24.5q-39 0 -74 14.5t-60.5 38t-40 56t-14.5 69.5z" />
<glyph unicode="&#x201c;" horiz-adv-x="983" d="M102 1036q0 51 7.5 97.5t27.5 99.5q35 98 114 148.5t171 50.5v-17q-86 0 -160 -46t-108 -142q-10 -27 -17.5 -53.5t-11.5 -49.5q27 41 70 65.5t96 24.5q39 0 73.5 -14t61.5 -37.5t42 -56.5t15 -70t-15 -68.5t-42 -55t-61.5 -38t-73.5 -14.5q-80 0 -134.5 50t-54.5 126z M520 1036q0 49 10.5 97.5t30.5 99.5q35 98 113 148.5t166 50.5v-17q-84 0 -158 -46t-111 -142q-8 -27 -14 -53.5t-10 -49.5q23 41 67.5 65.5t98.5 24.5q39 0 73.5 -14t60 -37.5t40 -56.5t14.5 -70t-14.5 -68.5t-40 -55t-60 -38t-73.5 -14.5q-80 0 -136.5 50t-56.5 126z" />
<glyph unicode="&#x201d;" horiz-adv-x="983" d="M82 1255q0 37 14.5 69t40 55.5t60 38t73.5 14.5q80 0 136.5 -50.5t56.5 -126.5q0 -49 -10.5 -97t-30.5 -99q-35 -98 -113 -148.5t-166 -50.5v17q84 0 158 46t111 142q8 27 14 53.5t10 48.5q-23 -41 -67.5 -65.5t-98.5 -24.5q-39 0 -73.5 14.5t-60 38t-40 56.5t-14.5 69z M500 1255q0 37 15 69t42 55.5t61.5 38t73.5 14.5q80 0 134.5 -50.5t54.5 -126.5q0 -51 -7.5 -97t-27.5 -99q-35 -98 -114 -148.5t-171 -50.5v17q86 0 160 46t108 142q10 27 17.5 53.5t11.5 48.5q-27 -41 -70 -65.5t-96 -24.5q-39 0 -73.5 14.5t-61.5 38t-42 56.5t-15 69z " />
<glyph unicode="&#x201e;" horiz-adv-x="983" d="M82 174q0 37 14.5 68.5t40 55.5t60 38t73.5 14q80 0 136.5 -50t56.5 -126q0 -49 -10.5 -97t-30.5 -100q-35 -98 -113 -148t-166 -50v16q84 0 158 46t111 143q8 27 14 53t10 49q-23 -41 -67.5 -65.5t-98.5 -24.5q-39 0 -73.5 14.5t-60 38t-40 56t-14.5 69.5zM500 174 q0 37 15 68.5t42 55.5t61.5 38t73.5 14q80 0 134.5 -50t54.5 -126q0 -51 -7.5 -97t-27.5 -100q-35 -98 -114 -148t-171 -50v16q86 0 160 46t108 143q10 27 17.5 53t11.5 49q-27 -41 -70 -65.5t-96 -24.5q-39 0 -73.5 14.5t-61.5 38t-42 56t-15 69.5z" />
<glyph unicode="&#x2022;" horiz-adv-x="815" d="M82 754q0 137 96 233q92 92 228 92q137 0 229 -92q96 -96 98 -233q-2 -135 -98 -228q-47 -47 -102.5 -72.5t-126.5 -25.5q-133 0 -228 98q-96 94 -96 228z" />
<glyph unicode="&#x202f;" horiz-adv-x="378" />
<glyph unicode="&#x205f;" horiz-adv-x="473" />
<glyph unicode="&#x20ac;" horiz-adv-x="1116" d="M61 604v19h105q0 55 -1 111.5t5 115.5h-109v20h109q10 111 33.5 194t54.5 144.5t66.5 103.5t72.5 70q84 66 187 74q72 0 129 -11t102 -30q8 -4 23.5 -11t33 -14.5t33 -13.5t21.5 -6q25 0 39 8t21 19.5t10 24t8 20.5h10v-357h-25q-4 90 -35 162q-12 31 -32.5 59.5t-50 51 t-68.5 37t-90 14.5q-68 0 -113 -55.5t-74.5 -136t-45 -175t-21.5 -172.5h512v-20h-514q-4 -55 -5 -111.5t3 -115.5h477v-19h-477q6 -78 19 -177t43 -189.5t77 -151.5t119 -61q102 0 158.5 50t82.5 111q31 70 35 162h25v-356h-10q-4 8 -7.5 19.5t-10.5 22.5t-21.5 19t-38.5 8 q-6 0 -21.5 -6t-33 -13t-33 -15.5t-23.5 -10.5q-45 -16 -102.5 -28.5t-128.5 -12.5q-106 10 -193 78q-37 29 -73.5 75t-67.5 111.5t-52.5 155.5t-29.5 209h-107z" />
<glyph unicode="&#x2122;" horiz-adv-x="1824" d="M82 1286h231v-725h150v725h231v146h-612v-146zM821 565v869h172l262 -623l258 623h170v-869h-145v559q-57 -139 -115.5 -280.5t-113.5 -278.5h-113l-229 557v-557h-146z" />
<glyph unicode="&#x25fc;" horiz-adv-x="1064" d="M0 0v1065h1065v-1065h-1065z" />
<glyph unicode="&#xfb01;" horiz-adv-x="1173" d="M20 1010v34h148v256q10 82 57 148q20 27 50 53.5t73 48t100.5 33.5t131.5 12q90 0 164.5 -16t128 -51t83 -89.5t29.5 -131.5q-4 -47 -40 -90t-95 -43t-100 31.5t-41 109.5q0 47 28.5 79.5t87.5 32.5q51 0 59.5 21.5t-16 46.5t-75 46.5t-115.5 21.5q-74 0 -114 -41 t-58 -90q-23 -57 -25 -132v-256h90h95h354v-888q2 -43 16 -78q12 -29 39 -53.5t78 -24.5h-539h-43h-536q45 0 71.5 20.5t41 47t17.5 51t3 35.5v856h-148zM481 154q0 -10 3 -33t14.5 -48.5t34 -46t59.5 -26.5q43 6 66.5 30.5t33.5 53.5q12 33 15 72v749q-2 29 -17 51 q-12 20 -39.5 37t-77.5 17h-92v-856z" />
<glyph unicode="&#xfb02;" horiz-adv-x="1181" d="M20 1022v37h146v213v28q6 82 45 148q33 55 105.5 101t205.5 46q82 0 144 -22q61 -8 155 -10t205 14v-1434q2 -41 16 -71q12 -29 40 -50.5t79 -21.5h-549h-30h-103h-313h-133q45 0 71.5 20.5t40 47t17.5 51t4 35.5v868h-146zM477 758q0 -137 1 -259t1 -215.5v-129.5 q0 -8 3 -32t15.5 -49.5t36 -47t64.5 -25.5q43 4 67.5 26.5t34.5 49.5q12 31 15 67v1287q0 16 -4 36q-4 16 -10.5 36t-18.5 36q-31 12 -57 12q-55 0 -85 -38.5t-44 -86.5q-16 -55 -19 -125v-28v-213h187v-37h-187v-264z" />
<glyph unicode="&#xfb03;" horiz-adv-x="1755" d="M20 1010v34h148v256q-2 82 33 148q29 55 98.5 101t204.5 46q113 0 200 -25.5t138 -80.5q47 43 121.5 74.5t197.5 31.5q90 0 165 -16t128 -51t83 -89.5t30 -131.5q-4 -47 -40 -90t-95 -43t-100.5 31.5t-41.5 109.5q0 47 29 79.5t88 32.5q51 0 59.5 21.5t-16.5 46.5 t-75 46.5t-115 21.5q-74 0 -114 -41t-59 -90q-23 -57 -24 -132v-256h90h94h355v-888q2 -43 16 -78q12 -29 38.5 -53.5t78.5 -24.5h-539h-22q43 6 66.5 30.5t33.5 53.5q12 33 14 72v749q-2 29 -16 51q-12 20 -40 37t-77 17h-92v-856q0 -10 3 -33t14.5 -48.5t34 -46 t59.5 -26.5h-21h-537q45 0 72 20.5t41 47t17.5 51t3.5 35.5v856h-269v-856q0 -10 4 -35t17.5 -51.5t40 -47t71.5 -20.5h-579q45 0 71.5 20.5t41 47t17.5 51t3 35.5v856h-148zM481 1044h269v256q2 25 10 54q8 25 22.5 54.5t40.5 59.5q-20 31 -79.5 63t-141.5 32 q-53 0 -78.5 -41t-36.5 -90q-10 -57 -6 -132v-256z" />
</font>
</defs>
</svg>
